<svg width="21" height="24" viewBox="0 0 21 24" fill="none" xmlns="http://www.w3.org/2000/svg">
<path fill-rule="evenodd" clip-rule="evenodd" d="M5.30952 10.4806C5.30952 6.43845 8.78634 3.14738 13.0583 3.14738C17.3302 3.14738 20.8139 6.43845 20.8139 10.4806C20.8139 17.5931 13.5 23 13.5 23C13.2431 23.1936 12.8789 23.1936 12.6221 23C12.6221 23 5.30951 17.5931 5.30952 10.4806ZM12.6442 10.5602L13.6133 7.83552C13.7061 7.30621 13.6248 7.01501 13.3013 6.72712C13.0518 6.5493 12.8918 6.51592 12.5834 6.53114C12.1556 6.59292 11.9145 6.76126 11.7025 7.21858L10.3791 11.0946C10.3333 11.2085 10.2413 11.7091 10.2544 11.8312C10.2674 11.9533 10.3103 12.0703 10.3791 12.172C10.448 12.2737 10.5407 12.3569 10.6492 12.4144C10.7577 12.4718 11.3772 12.5002 11.5 12.5L12.8941 12.5015L11.8042 15.2203C11.7431 15.5473 11.7229 15.7829 11.7683 16.0001C12.0822 16.5097 12.2857 16.6177 12.9251 16.5338C13.1943 16.4701 13.3609 16.3038 13.5001 16.0001L15.212 11.7628C15.2579 11.6488 15.3503 11.3523 15.3371 11.2301C15.324 11.1079 15.2811 10.9908 15.212 10.8891C15.143 10.7874 15.0501 10.7042 14.9414 10.6468C14.8327 10.5895 14.4017 10.5597 14.2788 10.5602H12.8941H12.6442Z" fill="white"/>
<path d="M1 4H7" stroke="white" stroke-width="1.5" stroke-linecap="round"/>
<path d="M4 7V1" stroke="white" stroke-width="1.5" stroke-linecap="round"/>
</svg>
