<svg width="21" height="23" viewBox="0 0 21 23" fill="none" xmlns="http://www.w3.org/2000/svg">
<path d="M13.9243 9.22212C13.368 8.95833 13.0773 8.96786 12.5151 9.22212V10.9999C13.0717 11.2048 13.3668 11.2103 13.9243 10.9999C14.2926 10.8499 14.4969 10.5366 14.5132 10.111C14.4979 9.72405 14.2956 9.4031 13.9243 9.22212Z" fill="white"/>
<path d="M12.7488 3C8.47682 3 5 6.29111 5 10.3332C5 17.4456 12.3125 22.8526 12.3125 22.8526C12.5694 23.0462 12.9336 23.0462 13.1905 22.8526C13.1905 22.8526 20.5044 17.4456 20.5044 10.3332C20.5044 6.29111 17.0207 3 12.7488 3ZM13.6909 6.99995C15.3376 7.07243 16.7426 8.278 16.7426 10.111C16.7426 11.944 16.0408 12.8501 14.3941 13.2221C14.044 13.3012 12.5153 13.2221 12.5153 13.2221V15.8887H10.6365C10.1668 15.8887 10.1668 15.4443 10.1668 15.4443V14.9999V14.5554V12.3332C10.1668 12.3332 10.1668 11.6942 10.1668 10.9999C10.1668 10.4792 10.1668 9.22215 10.1668 9.22215V8.77771C11.1062 6.99995 12.6731 6.99995 13.6909 6.99995Z" fill="white"/>
<path d="M1 4H7" stroke="white" stroke-width="1.5" stroke-linecap="round"/>
<path d="M4 7V1" stroke="white" stroke-width="1.5" stroke-linecap="round"/>
</svg>
