<svg width="19" height="22" viewBox="0 0 19 22" fill="none" xmlns="http://www.w3.org/2000/svg">
<path fill-rule="evenodd" clip-rule="evenodd" d="M0.75 0C1.16421 0 1.5 0.33579 1.5 0.75V20.75C1.5 21.1642 1.16421 21.5 0.75 21.5C0.33579 21.5 0 21.1642 0 20.75V0.75C0 0.33579 0.33579 0 0.75 0Z" fill="white"/>
<path d="M4.75 6.25C4.75 5.31538 4.75 4.84808 4.95096 4.5C5.08261 4.27197 5.27197 4.08261 5.5 3.95096C5.84808 3.75 6.31538 3.75 7.25 3.75H16.25C17.1846 3.75 17.6519 3.75 18 3.95096C18.228 4.08261 18.4174 4.27197 18.549 4.5C18.75 4.84808 18.75 5.31538 18.75 6.25C18.75 7.18462 18.75 7.65192 18.549 8C18.4174 8.22803 18.228 8.4174 18 8.549C17.6519 8.75 17.1846 8.75 16.25 8.75H7.25C6.31538 8.75 5.84808 8.75 5.5 8.549C5.27197 8.4174 5.08261 8.22803 4.95096 8C4.75 7.65192 4.75 7.18462 4.75 6.25Z" fill="white"/>
<path d="M4.75 15.25C4.75 14.3154 4.75 13.8481 4.95096 13.5C5.08261 13.272 5.27197 13.0826 5.5 12.951C5.84808 12.75 6.31538 12.75 7.25 12.75H13.25C14.1846 12.75 14.6519 12.75 15 12.951C15.228 13.0826 15.4174 13.272 15.549 13.5C15.75 13.8481 15.75 14.3154 15.75 15.25C15.75 16.1846 15.75 16.6519 15.549 17C15.4174 17.228 15.228 17.4174 15 17.549C14.6519 17.75 14.1846 17.75 13.25 17.75H7.25C6.31538 17.75 5.84808 17.75 5.5 17.549C5.27197 17.4174 5.08261 17.228 4.95096 17C4.75 16.6519 4.75 16.1846 4.75 15.25Z" fill="white"/>
</svg>
