<svg width="19" height="22" viewBox="0 0 19 22" fill="none" xmlns="http://www.w3.org/2000/svg">
<path fill-rule="evenodd" clip-rule="evenodd" d="M18 0C17.5858 0 17.25 0.33579 17.25 0.75V20.75C17.25 21.1642 17.5858 21.5 18 21.5C18.4142 21.5 18.75 21.1642 18.75 20.75V0.75C18.75 0.33579 18.4142 0 18 0Z" fill="white"/>
<path d="M14 6.25C14 5.31538 14 4.84808 13.799 4.5C13.6674 4.27197 13.478 4.08261 13.25 3.95096C12.9019 3.75 12.4346 3.75 11.5 3.75H2.5C1.56538 3.75 1.09808 3.75 0.75 3.95096C0.52197 4.08261 0.33261 4.27197 0.20096 4.5C-7.45058e-08 4.84807 0 5.31538 0 6.25C0 7.18461 -7.45058e-08 7.65192 0.20096 8C0.33261 8.22803 0.52197 8.4174 0.75 8.549C1.09808 8.75 1.56538 8.75 2.5 8.75H11.5C12.4346 8.75 12.9019 8.75 13.25 8.549C13.478 8.4174 13.6674 8.22803 13.799 8C14 7.65192 14 7.18462 14 6.25Z" fill="white"/>
<path d="M14 15.25C14 14.3154 14 13.8481 13.799 13.5C13.6674 13.272 13.478 13.0826 13.25 12.951C12.9019 12.75 12.4346 12.75 11.5 12.75H5.5C4.56538 12.75 4.09808 12.75 3.75 12.951C3.52197 13.0826 3.33261 13.272 3.20096 13.5C3 13.8481 3 14.3154 3 15.25C3 16.1846 3 16.6519 3.20096 17C3.33261 17.228 3.52197 17.4174 3.75 17.549C4.09808 17.75 4.56538 17.75 5.5 17.75H11.5C12.4346 17.75 12.9019 17.75 13.25 17.549C13.478 17.4174 13.6674 17.228 13.799 17C14 16.6519 14 16.1846 14 15.25Z" fill="white"/>
</svg>
