<svg width="17" height="17" viewBox="0 0 17 17" fill="none" xmlns="http://www.w3.org/2000/svg">
<path d="M15.75 1H14.25C14.112 1 14 1.112 14 1.24999V1.78498C11.2273 2.22347 8.69403 3.41799 6.65526 5.24998H5.25001C5.11202 5.24998 5.00002 5.36198 5.00002 5.49997C5.00002 5.63796 5.00002 6.92172 5.00002 6.92172C3.30903 8.91221 2.20053 11.3535 1.78478 14H1.24999C1.112 14 1 14.112 1 14.25V15.75C1 15.888 1.112 16 1.24999 16H2.74999C2.88798 16 2.99998 15.888 2.99998 15.75V14.25C2.99998 14.112 2.88798 14 2.74999 14H2.291C2.70174 11.4765 3.76475 9.15001 5.37725 7.25002H6.75001C6.888 7.25002 7 7.13802 7 7.00003V5.61253C8.94575 3.86778 11.3583 2.72403 14 2.29129V2.75005C14 2.88804 14.112 3.00004 14.25 3.00004H15.75C15.888 3.00004 16 2.88804 16 2.75005V1.25005C16 1.112 15.888 1 15.75 1Z" fill="#2A7378" stroke="white"/>
</svg>
