<svg width="25" height="16" viewBox="0 0 25 16" fill="none" xmlns="http://www.w3.org/2000/svg">
<path d="M17.1968 14.7074C17.0082 14.8896 16.7556 14.9904 16.4934 14.9881C16.2312 14.9858 15.9804 14.8806 15.795 14.6952C15.6096 14.5098 15.5044 14.259 15.5021 13.9968C15.4998 13.7346 15.6006 13.482 15.7828 13.2934L20.0758 9.00039H2.48975C2.22453 9.00039 1.97018 8.89509 1.78264 8.70749C1.59511 8.51999 1.48975 8.26559 1.48975 8.00039C1.48975 7.73519 1.59511 7.48079 1.78264 7.29329C1.97018 7.10579 2.22453 7.00039 2.48975 7.00039H20.0758L15.7828 2.7074C15.6006 2.5188 15.4998 2.2662 15.5021 2.004C15.5044 1.7418 15.6096 1.49099 15.795 1.30558C15.9804 1.12017 16.2312 1.015 16.4934 1.01273C16.7556 1.01045 17.0082 1.11124 17.1968 1.2934L23.1968 7.29339C23.3843 7.48089 23.4896 7.73519 23.4896 8.00039C23.4896 8.26559 23.3843 8.51989 23.1968 8.70739L17.1968 14.7074Z" fill="white" stroke="white" stroke-width="2"/>
</svg>
