<svg width="24" height="16" viewBox="0 0 24 16" fill="none" xmlns="http://www.w3.org/2000/svg">
<path d="M7.29299 14.6947C7.48159 14.8769 7.73419 14.9777 7.99639 14.9754C8.25859 14.9731 8.50939 14.8679 8.69479 14.6825C8.88019 14.4971 8.98539 14.2463 8.98769 13.9841C8.98999 13.7219 8.88919 13.4693 8.70699 13.2807L4.41399 8.9877H22C22.2652 8.9877 22.5196 8.8824 22.7071 8.6948C22.8946 8.5073 23 8.2529 23 7.9877C23 7.7225 22.8946 7.4681 22.7071 7.2806C22.5196 7.0931 22.2652 6.9877 22 6.9877H4.41399L8.70699 2.69471C8.88919 2.50611 8.98999 2.25351 8.98769 1.99131C8.98539 1.72911 8.88019 1.4783 8.69479 1.29289C8.50939 1.10748 8.25859 1.00231 7.99639 1.00004C7.73419 0.997758 7.48159 1.09855 7.29299 1.28071L1.29299 7.2807C1.10549 7.4682 1.00019 7.7225 1.00019 7.9877C1.00019 8.2529 1.10549 8.5072 1.29299 8.6947L7.29299 14.6947Z" fill="white" stroke="white" stroke-width="2"/>
</svg>
