<svg width="24" height="24" viewBox="0 0 24 24" fill="none" xmlns="http://www.w3.org/2000/svg">
<path d="M6.56498 10.5788C6.66663 10.4776 6.7769 10.3923 6.89292 10.318L14.6543 2.56697C15.4114 1.81113 16.6398 1.81077 17.3974 2.56733C18.1549 3.32353 18.1549 4.55002 17.3974 5.30694L10.7132 11.9825L17.4319 18.6929C18.1894 19.4491 18.1894 20.6752 17.4319 21.4325C17.0529 21.8113 16.5562 22 16.0605 22C15.5648 22 15.0677 21.8113 14.6891 21.4325L6.89292 13.6456C6.7769 13.5713 6.66591 13.4859 6.56498 13.3848C6.17777 12.9981 5.99099 12.4887 6.00033 11.9818C5.99099 11.4749 6.17777 10.9659 6.56498 10.5788Z" fill="white"/>
</svg>
