<svg width="24" height="24" viewBox="0 0 24 24" fill="none" xmlns="http://www.w3.org/2000/svg">
<path d="M10.565 10.5788C10.6666 10.4776 10.7769 10.3923 10.8929 10.318L18.6543 2.56697C19.4114 1.81113 20.6398 1.81077 21.3974 2.56733C22.1549 3.32353 22.1549 4.55002 21.3974 5.30694L14.7132 11.9825L21.4319 18.6929C22.1894 19.4491 22.1894 20.6752 21.4319 21.4325C21.0529 21.8113 20.5562 22 20.0605 22C19.5648 22 19.0677 21.8113 18.6891 21.4325L10.8929 13.6456C10.7769 13.5713 10.6659 13.4859 10.565 13.3848C10.1778 12.9981 9.99099 12.4887 10.0003 11.9818C9.99099 11.4749 10.1778 10.9659 10.565 10.5788Z" fill="white"/>
<path d="M1.56498 10.5788C1.66663 10.4776 1.7769 10.3923 1.89292 10.318L9.65425 2.56697C10.4114 1.81113 11.6398 1.81077 12.3974 2.56733C13.1549 3.32353 13.1549 4.55002 12.3974 5.30694L5.71324 11.9825L12.4319 18.6929C13.1894 19.4491 13.1894 20.6752 12.4319 21.4325C12.0529 21.8113 11.5562 22 11.0605 22C10.5648 22 10.0677 21.8113 9.68909 21.4325L1.89292 13.6456C1.7769 13.5713 1.66591 13.4859 1.56498 13.3848C1.17777 12.9981 0.990995 12.4887 1.00033 11.9818C0.990995 11.4749 1.17777 10.9659 1.56498 10.5788Z" fill="white"/>
</svg>
