<svg width="26" height="25" viewBox="0 0 26 25" fill="none" xmlns="http://www.w3.org/2000/svg">
<path d="M21.9311 3.40562C21.9311 3.40562 22.0765 3.50815 19.815 2.82134C17.7876 2.20591 15.8699 2.07383 15.8699 2.07383L15.737 1.13159C15.6456 0.481299 15.1133 0 14.4862 0H12.9896H11.4929C10.8667 0 10.3343 0.481299 10.2422 1.13159L10.1093 2.07383C10.1093 2.07383 8.19236 2.20591 6.16501 2.82134C3.90266 3.5082 4.04802 3.40562 4.04802 3.40562C3.54392 3.54473 3.19177 4.02354 3.19177 4.57085V5.38603H12.9896H22.7883V4.57085C22.7883 4.02354 22.4361 3.54473 21.9311 3.40562Z" fill="white"/>
<path d="M4.81584 22.692C4.93127 23.9984 6.02551 25 7.33738 25H18.6423C19.9536 25 21.0483 23.9984 21.1637 22.692L22.4158 6.7149H3.56384L4.81584 22.692ZM17.19 10.2492C17.2149 9.83898 17.5675 9.52623 17.9778 9.55118C18.3881 9.57609 18.7004 9.92867 18.6759 10.339L17.9682 22.033C17.9433 22.4432 17.5907 22.7555 17.1805 22.7306C16.7702 22.7057 16.4575 22.3536 16.4824 21.9433L17.19 10.2492ZM12.2454 10.2941C12.2454 9.88297 12.5785 9.54991 12.9896 9.54991C13.4007 9.54991 13.7337 9.88297 13.7337 10.2941V21.988C13.7337 22.3992 13.4007 22.7322 12.9896 22.7322C12.5784 22.7322 12.2454 22.3991 12.2454 21.988V10.2941ZM8.00139 9.55118C8.41169 9.52628 8.76428 9.83898 8.78918 10.2492L9.49763 21.9432C9.52253 22.3535 9.20984 22.7056 8.79958 22.7305C8.38928 22.7554 8.0367 22.4431 8.01179 22.0329L7.30334 10.3389C7.27839 9.92867 7.59109 9.57609 8.00139 9.55118Z" fill="white"/>
</svg>
