<svg width="17" height="17" viewBox="0 0 17 17" fill="none" xmlns="http://www.w3.org/2000/svg">
<path d="M15.3877 9.57143C14.9591 12.5982 12.5875 14.9955 9.57143 15.4627V16H7.42857V15.4627C4.4125 14.9961 2.04089 12.5982 1.61179 9.57143H1V7.42857H1.63643C2.13143 4.48589 4.47196 2.17321 7.42857 1.71571V1H9.57143V1.71571C12.5286 2.17321 14.868 4.48589 15.3636 7.42857H16V9.57143H15.3877ZM7.96429 15.4643H9.03571V14.3929H7.96429V15.4643ZM1.53571 7.96429V9.03571H2.60714V7.96429H1.53571ZM9.03571 1.53571H7.96429V2.60714H9.03571V1.53571ZM9.57143 2.52786V3.14286H7.42857V2.52786C4.91607 2.96929 2.92804 4.92946 2.45071 7.42857H3.14286V9.57143H2.42179C2.83696 12.1546 4.85661 14.1989 7.42857 14.6505V13.8571H9.57143V14.6505C12.1434 14.1984 14.163 12.1546 14.5782 9.57143H13.8571V7.42857H14.5493C14.0714 4.92946 12.0839 2.96929 9.57143 2.52786ZM15.4643 7.96429H14.3929V9.03571H15.4643V7.96429Z" fill="white" stroke="white" stroke-width="0.5"/>
</svg>
