<svg width="24" height="24" viewBox="0 0 24 24" fill="none" xmlns="http://www.w3.org/2000/svg">
<g clip-path="url(#clip0_1222_1011)">
<path fill-rule="evenodd" clip-rule="evenodd" d="M19.9371 0.423311C19.3929 -0.0326264 18.5818 0.0390609 18.126 0.583428C17.67 1.1278 17.7417 1.93869 18.2861 2.39464C19.194 3.15512 19.9591 4.17599 20.5041 5.3884C21.0453 6.59235 21.349 7.94089 21.384 9.32564C21.3487 10.7116 21.0435 12.061 20.5005 13.2649C19.9534 14.4772 19.1859 15.4968 18.2757 16.2546C17.73 16.7089 17.6559 17.5197 18.1102 18.0653C18.5647 18.611 19.3754 18.6851 19.921 18.2308C21.1546 17.2036 22.1505 15.8603 22.8442 14.3224C23.5382 12.7844 23.9162 11.0834 23.9554 9.35511C23.9559 9.3357 23.9559 9.31629 23.9554 9.29689C23.9167 7.57059 23.5406 5.87147 22.8495 4.33417C22.1585 2.79688 21.1665 1.45299 19.9371 0.423311ZM9.17251 14.8526C8.72061 15.4003 7.91025 15.478 7.36253 15.0261C6.5544 14.3593 5.90558 13.4947 5.45254 12.5124C4.99954 11.5302 4.74977 10.4471 4.71547 9.34703C4.71466 9.32115 4.71465 9.29524 4.7154 9.26936C4.74766 8.16666 4.99644 7.08049 5.44949 6.09534C5.90258 5.11016 6.55246 4.243 7.36243 3.57457C7.91009 3.1226 8.72045 3.20019 9.17242 3.74785C9.62439 4.29553 9.54681 5.10589 8.99914 5.55786C8.50989 5.96161 8.08944 6.50932 7.7857 7.16975C7.48707 7.81911 7.31412 8.55023 7.287 9.30573C7.31551 10.0593 7.48908 10.7882 7.78761 11.4355C8.09124 12.0939 8.51093 12.6399 8.99904 13.0426C9.54675 13.4945 9.62441 14.3049 9.17251 14.8526ZM14.7832 3.79904C15.2351 3.25132 16.0455 3.17367 16.5932 3.62557C17.4014 4.29234 18.0502 5.15692 18.5031 6.13924C18.9562 7.12149 19.206 8.2046 19.2403 9.30462C19.2411 9.33051 19.2411 9.35641 19.2403 9.38229C19.2081 10.485 18.9593 11.5712 18.5062 12.5563C18.0531 13.5415 17.4033 14.4086 16.5933 15.0771C16.0456 15.5291 15.2353 15.4515 14.7833 14.9038C14.3313 14.3561 14.4089 13.5458 14.9566 13.0938C15.4458 12.69 15.8663 12.1423 16.17 11.4819C16.4687 10.8325 16.6416 10.1014 16.6687 9.34593C16.6402 8.59233 16.4666 7.86344 16.1681 7.21614C15.8645 6.55779 15.4448 6.01175 14.9567 5.60901C14.409 5.15711 14.3313 4.34675 14.7832 3.79904ZM5.82991 18.0683C5.37396 18.6125 4.56307 18.6842 4.0187 18.2284C2.7893 17.1986 1.79731 15.8548 1.10632 14.3175C0.41532 12.7802 0.0391828 11.0811 0.000325655 9.35476C-0.000111262 9.33538 -0.000108399 9.31595 0.000333426 9.29655C0.0397115 7.5682 0.417657 5.86729 1.11154 4.3293C1.80542 2.79133 2.80123 1.44803 4.03479 0.420938C4.58049 -0.0334151 5.39117 0.0406281 5.84553 0.586319C6.29988 1.13201 6.22584 1.94271 5.68015 2.39706C4.76997 3.15489 4.00241 4.17447 3.45547 5.38679C2.91231 6.59067 2.60717 7.94007 2.57181 9.32601C2.60674 10.7108 2.91055 12.0593 3.45171 13.2633C3.99667 14.4757 4.76181 15.4965 5.66979 16.257C6.21415 16.713 6.28584 17.5238 5.82991 18.0683ZM12.0001 6.64537C10.4629 6.64537 9.21684 7.89147 9.21684 9.42858C9.21684 10.5034 9.82615 11.436 10.7182 11.8997C10.7156 11.9328 10.7143 11.9662 10.7143 12V22.5403C10.7143 23.2504 11.29 23.826 12.0001 23.826C12.7101 23.826 13.2858 23.2504 13.2858 22.5403V12C13.2858 11.9663 13.2845 11.9328 13.2819 11.8997C14.174 11.436 14.7833 10.5035 14.7833 9.42858C14.7833 7.89147 13.5372 6.64537 12.0001 6.64537Z" fill="white"/>
</g>
<defs>
<clipPath id="clip0_1222_1011">
<rect width="24" height="24" fill="white"/>
</clipPath>
</defs>
</svg>
