<svg width="15" height="15" viewBox="0 0 15 15" fill="none" xmlns="http://www.w3.org/2000/svg">
<g clip-path="url(#clip0_4556_19169)">
<path d="M14.8746 5.74996H10.3746C10.3057 5.74996 10.2496 5.69398 10.2496 5.62496V1.87501C10.2496 1.80601 10.1937 1.75 10.1246 1.75H4.12501C4.05601 1.75 4 1.80599 4 1.87524L4.01749 14.8751C4.01749 14.944 4.07348 14.9998 4.1425 14.9998H14.8746C14.9436 14.9998 14.9996 14.9438 14.9996 14.8748V5.87491C14.9996 5.80595 14.9436 5.74996 14.8746 5.74996Z" fill="white"/>
<path d="M8.62488 0H0.125008C0.0559856 0 0 0.0560149 0 0.125008V12.8748C0 12.9438 0.0559856 12.9998 0.125008 12.9998H3.37495C3.44395 12.9998 3.49996 12.9439 3.49996 12.8748V1.375C3.49996 1.30601 3.55595 1.24999 3.62497 1.24999H8.62488C8.69388 1.24999 8.74989 1.19401 8.74989 1.12498V0.125008C8.74989 0.0560149 8.69388 0 8.62488 0Z" fill="white"/>
<path d="M14.9517 5.01915L10.9657 1.77995C10.8798 1.70996 10.75 1.77046 10.75 1.88044V5.11963C10.75 5.19165 10.809 5.24989 10.882 5.24989H14.8679C14.9917 5.24989 15.0474 5.0969 14.9517 5.01915Z" fill="white"/>
</g>
<defs>
<clipPath id="clip0_4556_19169">
<rect width="15" height="15" fill="white"/>
</clipPath>
</defs>
</svg>
