<svg width="21" height="22" viewBox="0 0 21 22" fill="none" xmlns="http://www.w3.org/2000/svg">
<path d="M2.35701 16.2943C2.63315 16.2943 2.85701 16.0704 2.85701 15.7943V6.17678C2.85701 5.05354 3.30851 3.97631 4.1122 3.18206C4.91589 2.38781 6.00593 1.94161 7.14251 1.94161C8.2791 1.94161 9.36914 2.38781 10.1728 3.18206C10.9765 3.97631 11.428 5.05354 11.428 6.17678V16.7648C11.428 17.3888 11.6789 17.9873 12.1254 18.4286C12.5718 18.8698 13.1774 19.1177 13.8089 19.1177C14.4403 19.1177 15.0459 18.8698 15.4924 18.4286C15.9389 17.9873 16.1897 17.3888 16.1897 16.7648V6.84235C16.1897 6.62975 16.0532 6.44423 15.8626 6.34996C15.3708 6.10662 14.958 5.72683 14.677 5.2537C14.3359 4.67902 14.2112 4.00364 14.3252 3.34694C14.4392 2.69024 14.7844 2.0945 15.2999 1.66503C15.8153 1.23556 16.4678 1 17.142 1C17.8162 1 18.4687 1.23556 18.9842 1.66503C19.4997 2.0945 19.8449 2.69024 19.9589 3.34694C20.0728 4.00364 19.9482 4.67902 19.607 5.2537C19.3261 5.72683 18.9133 6.10662 18.4215 6.34996C18.2309 6.44423 18.0944 6.62975 18.0944 6.84235V16.7648C18.0944 17.8881 17.6429 18.9653 16.8392 19.7595C16.0355 20.5538 14.9454 21 13.8089 21C12.6723 21 11.5822 20.5538 10.7786 19.7595C9.97486 18.9653 9.52335 17.8881 9.52335 16.7648V6.17678C9.52335 5.55276 9.27251 4.9543 8.82602 4.51305C8.37953 4.0718 7.77395 3.82391 7.14251 3.82391C6.51108 3.82391 5.9055 4.0718 5.45901 4.51305C5.01251 4.9543 4.76168 5.55276 4.76168 6.17678V15.7943C4.76168 16.0704 4.98553 16.2943 5.26168 16.2943H6.57064C6.99123 16.2943 7.2239 16.7819 6.95926 17.1088L4.19797 20.5199C3.99785 20.7671 3.62083 20.7671 3.42072 20.5199L0.659421 17.1088C0.394786 16.7819 0.627451 16.2943 1.04805 16.2943H2.35701Z" fill="white" stroke="white"/>
</svg>
