<svg width="13" height="15" viewBox="0 0 13 15" fill="none" xmlns="http://www.w3.org/2000/svg">
<path d="M4.4375 12.1944L9.9375 1M4.4375 12.1944C4.4375 13.1916 3.66799 14 2.71875 14C1.76951 14 1 13.1916 1 12.1944C1 11.1973 1.76951 10.3889 2.71875 10.3889C3.66799 10.3889 4.4375 11.1973 4.4375 12.1944ZM8.5625 12.1944L3.0625 1M8.5625 12.1944C8.5625 13.1916 9.33202 14 10.2812 14C11.2305 14 12 13.1916 12 12.1944C12 11.1973 11.2305 10.3889 10.2812 10.3889C9.33202 10.3889 8.5625 11.1973 8.5625 12.1944Z" stroke="white" stroke-width="2" stroke-linecap="round" stroke-linejoin="round"/>
</svg>
