<svg width="468" height="467" viewBox="0 0 468 467" fill="none" xmlns="http://www.w3.org/2000/svg">
<path d="M134.236 333.369L333.369 134.236M34.6692 407.91L54.1033 309.941C55.1118 305.738 57.1287 301.843 59.9796 298.594C62.8305 295.345 66.4298 292.839 70.4664 291.292C74.5029 289.746 78.8553 289.206 83.1474 289.718C87.4396 290.231 91.5424 291.781 95.1012 294.234L173.37 372.503C175.824 376.062 177.374 380.165 177.886 384.457C178.399 388.749 177.858 393.101 176.312 397.138C174.766 401.174 172.259 404.774 169.01 407.625C165.761 410.476 161.866 412.492 157.663 413.501L59.6939 432.935C56.2318 433.842 52.5926 433.827 49.1382 432.891C45.6838 431.955 42.5347 430.131 40.004 427.6C37.4733 425.07 35.6493 421.92 34.7134 418.466C33.7774 415.012 33.7622 411.372 34.6692 407.91ZM434 59.6939L414.566 157.663C413.557 161.866 411.541 165.761 408.69 169.01C405.839 172.259 402.239 174.766 398.203 176.312C394.166 177.858 389.814 178.399 385.522 177.886C381.23 177.374 377.127 175.824 373.568 173.37L294.234 95.1012C291.781 91.5424 290.231 87.4396 289.718 83.1474C289.206 78.8553 289.746 74.5029 291.292 70.4664C292.839 66.4298 295.345 62.8305 298.594 59.9796C301.843 57.1287 305.738 55.1118 309.941 54.1033L407.91 34.6692C411.372 33.7622 415.012 33.7774 418.466 34.7134C421.92 35.6493 425.07 37.4733 427.6 40.004C430.131 42.5347 431.955 45.6838 432.891 49.1382C433.827 52.5926 433.842 56.2318 432.935 59.6939H434Z" stroke="white" stroke-width="66.6667" stroke-linecap="round" stroke-linejoin="round"/>
</svg>
