<svg width="25" height="24" viewBox="0 0 25 24" fill="none" xmlns="http://www.w3.org/2000/svg">
<path d="M21.1251 2.87772C18.6511 0.406045 16.228 0.342342 13.6902 2.87772L12.1471 4.41934C12.0195 4.54674 11.9685 4.75059 12.0195 4.92896C12.9888 8.30522 15.6924 11.0062 19.0719 11.9745C19.1229 11.9873 19.1739 12 19.2249 12C19.3652 12 19.4928 11.949 19.5948 11.8471L21.1251 10.3055C22.3877 9.05692 22.9998 7.84656 22.9998 6.62346C23.0126 5.36214 22.4004 4.13904 21.1251 2.87772Z" fill="white"/>
<path d="M16.9511 13.1938C16.5933 13.01 16.2478 12.8263 15.9146 12.6162C15.6431 12.4456 15.384 12.2618 15.1248 12.0649C14.9151 11.9205 14.6683 11.7104 14.4338 11.5004C14.4091 11.4873 14.3227 11.4085 14.224 11.3035C13.8168 10.9359 13.3602 10.4633 12.953 9.93822C12.916 9.91197 12.8543 9.82008 12.7679 9.70193C12.6445 9.5444 12.4348 9.28185 12.2497 8.97992C12.1016 8.78301 11.9288 8.49421 11.7684 8.20541C11.571 7.85096 11.3982 7.49652 11.2255 7.12896C11.1731 7.00952 11.1241 6.89128 11.0778 6.77462C10.9393 6.42553 10.4856 6.32763 10.2284 6.60127L3.04417 14.244C2.88375 14.4147 2.73567 14.7429 2.69865 14.966L2.0323 19.9938C1.90891 20.8865 2.14336 21.7266 2.66163 22.2911C3.10587 22.7506 3.72286 23 4.3892 23C4.53728 23 4.68536 22.9869 4.83344 22.9606L9.57192 22.2517C9.79404 22.2124 10.1025 22.0548 10.2506 21.8842L17.4882 14.1846C17.7321 13.9252 17.635 13.4991 17.3092 13.3555C17.1927 13.3042 17.074 13.2504 16.9511 13.1938Z" fill="white"/>
</svg>
