<svg width="15" height="15" viewBox="0 0 15 15" fill="none" xmlns="http://www.w3.org/2000/svg">
<g clip-path="url(#clip0_4556_19015)">
<path d="M0.585175 11.4147L1.12082 9.4518L2.54844 10.8794L0.585175 11.4147Z" fill="white" stroke="white"/>
<mask id="path-2-inside-1_4556_19015" fill="white">
<path d="M10.0936 4.51818L7.48157 1.90618C7.42307 1.84768 7.32798 1.84768 7.26948 1.90618L7.00579 2.16987C6.94729 2.22869 6.94729 2.32346 7.00579 2.38196L9.61779 4.99396C9.67628 5.05246 9.77138 5.05246 9.82988 4.99396L10.0936 4.73027C10.1521 4.67177 10.1521 4.57668 10.0936 4.51818Z"/>
</mask>
<path d="M10.0936 4.51818L7.48157 1.90618C7.42307 1.84768 7.32798 1.84768 7.26948 1.90618L7.00579 2.16987C6.94729 2.22869 6.94729 2.32346 7.00579 2.38196L9.61779 4.99396C9.67628 5.05246 9.77138 5.05246 9.82988 4.99396L10.0936 4.73027C10.1521 4.67177 10.1521 4.57668 10.0936 4.51818Z" fill="white"/>
<path d="M10.0936 4.51818L9.38646 5.22528L10.0936 4.51818ZM7.48157 1.90618L8.18868 1.19907L7.48157 1.90618ZM7.26948 1.90618L7.97659 2.61328L7.97659 2.61328L7.26948 1.90618ZM7.00579 2.16987L6.29868 1.46276L6.29678 1.46468L7.00579 2.16987ZM7.00579 2.38196L6.29868 3.08907L7.00579 2.38196ZM9.61779 4.99396L10.3249 4.28686L9.61779 4.99396ZM10.8007 3.81107L8.18868 1.19907L6.77447 2.61328L9.38646 5.22528L10.8007 3.81107ZM8.18868 1.19907C7.73966 0.750049 7.0114 0.750049 6.56238 1.19907L7.97659 2.61328C7.64456 2.94531 7.10649 2.94531 6.77447 2.61328L8.18868 1.19907ZM6.56238 1.19907L6.29868 1.46277L7.71289 2.87698L7.97659 2.61328L6.56238 1.19907ZM6.29678 1.46468C5.85134 1.91252 5.84861 2.639 6.29868 3.08907L7.71289 1.67486C8.04597 2.00793 8.04324 2.54486 7.7148 2.87507L6.29678 1.46468ZM6.29868 3.08907L8.91068 5.70107L10.3249 4.28686L7.71289 1.67486L6.29868 3.08907ZM8.91068 5.70107C9.3597 6.15009 10.088 6.15009 10.537 5.70107L9.12277 4.28686C9.4548 3.95483 9.99287 3.95483 10.3249 4.28686L8.91068 5.70107ZM10.537 5.70107L10.8007 5.43737L9.38646 4.02316L9.12277 4.28686L10.537 5.70107ZM10.8007 5.43737C11.2497 4.98835 11.2497 4.26009 10.8007 3.81107L9.38646 5.22528C9.05444 4.89326 9.05444 4.35519 9.38646 4.02316L10.8007 5.43737Z" fill="white" mask="url(#path-2-inside-1_4556_19015)"/>
<path d="M1.90763 7.97512L6.4761 3.40665L8.59308 5.52364L4.02461 10.0921L1.90763 7.97512Z" fill="white" stroke="white"/>
<path d="M8.50724 1.37545L9.29992 0.582765L11.4169 2.69976L10.6242 3.49243L8.50724 1.37545Z" fill="white" stroke="white"/>
<path d="M11.6 7H10.6C10.2692 7 9.99999 7.06729 9.99999 7.3889C9.99999 7.7105 10.2692 7.77779 10.6 7.77779H11.6C12.2342 7.77779 13.2 9.20755 13.2 10.5C13.2 11.7925 12.2342 13.2223 11.6 13.2223H2.6C2.2692 13.2223 2 13.2895 2 13.6111C2 13.9328 2.2692 14 2.6 14H11.6C12.9608 14 14 12.3319 14 10.5C14 8.66813 12.9608 7 11.6 7Z" fill="white" stroke="white"/>
</g>
<defs>
<clipPath id="clip0_4556_19015">
<rect width="15" height="15" fill="white"/>
</clipPath>
</defs>
</svg>
