<svg width="17" height="12" viewBox="0 0 17 12" fill="none" xmlns="http://www.w3.org/2000/svg">
<path d="M15.7576 5.24841H15.1813C14.5183 3.41182 12.0839 2.06533 9.0023 1.83541V1.2424C9.0023 1.10846 8.89385 1 8.7599 1H7.24546C7.11151 1 7.00306 1.10846 7.00306 1.2424V1.86817C3.55283 2.24228 1 4.13433 1 6.37301C1 8.89385 4.25231 10.9446 8.24982 10.9446C11.9932 10.9446 14.7519 9.46838 15.2158 7.24771H15.7576C15.8915 7.24771 16 7.13926 16 7.00531V5.49087C16 5.35687 15.8915 5.24841 15.7576 5.24841ZM8.24982 10.4448C4.52769 10.4448 1.4998 8.6182 1.4998 6.37301C1.4998 4.40324 3.83568 2.7286 7.00303 2.37098V2.75684C7.00303 2.89079 7.11148 2.99924 7.24543 2.99924H8.75987C8.89382 2.99924 9.00227 2.89079 9.00227 2.75684V2.33676C11.772 2.55118 13.9634 3.68952 14.644 5.24844H14.2431C14.1092 5.24844 14.0007 5.3569 14.0007 5.49084V7.00529C14.0007 7.13923 14.1092 7.24768 14.2431 7.24768H14.7025C14.2196 9.14424 11.6301 10.4448 8.24982 10.4448Z" fill="#2A7378" stroke="white"/>
</svg>
