<svg width="24" height="24" viewBox="0 0 24 24" fill="none" xmlns="http://www.w3.org/2000/svg">
<path d="M21.0302 22H13.9902C13.5702 22 13.2402 21.66 13.2402 21.25C13.2402 20.84 13.5802 20.5 13.9902 20.5H21.0302C21.4502 20.5 21.7802 20.84 21.7802 21.25C21.7802 21.66 21.4502 22 21.0302 22Z" fill="white"/>
<path d="M13.64 16.69C14.03 17.08 14.03 17.71 13.64 18.11L10.66 21.09C9.55 22.2 7.77 22.26 6.59 21.27C6.52 21.21 6.46 21.15 6.4 21.09L5.53 20.22L3.74 18.43L2.88 17.57C2.81 17.5 2.75 17.43 2.69 17.36C1.71 16.18 1.78 14.42 2.88 13.32L5.86 10.34C6.25 9.95 6.88 9.95 7.27 10.34L13.64 16.69Z" fill="white"/>
<path d="M21.1199 10.64L16.1199 15.64C15.7299 16.03 15.0999 16.03 14.7099 15.64L8.33986 9.29C7.94986 8.9 7.94986 8.27 8.33986 7.87L13.3399 2.88C14.5099 1.71 16.4299 1.71 17.5999 2.88L21.1199 6.39C22.2899 7.56 22.2899 9.47 21.1199 10.64Z" fill="white"/>
</svg>
