<svg width="24" height="24" viewBox="0 0 24 24" fill="none" xmlns="http://www.w3.org/2000/svg">
<g clip-path="url(#clip0_271_514)">
<path d="M2.95485 4.63098C2.95485 4.63098 2.07617 5.25708 2.07617 6.75711V7.92868C2.07617 8.72433 2.39224 9.48739 2.95485 10.05L8.78328 15.8784C8.97081 16.066 9.07617 16.3203 9.07617 16.5855V22.0428C9.07617 23.5663 10.9182 24.3293 11.9955 23.252L14.1975 21.05C14.7601 20.4874 15.0762 19.7243 15.0762 18.9287V16.7571L2.95485 4.63098Z" fill="white"/>
<path d="M19.076 3.75708H9L17.9998 13L21.1973 10.05C21.7599 9.48736 22.076 8.7243 22.076 7.92865V6.75708C22.076 5.10023 20.7329 3.75708 19.076 3.75708Z" fill="white"/>
<path d="M2.94336 0.708536L23.2915 21.0568C25.0356 22.8009 23.2915 25.1264 20.966 23.3823L0.617792 3.03402C-1.12642 0.708553 1.19918 -1.03559 2.94336 0.708536Z" fill="white"/>
</g>
<defs>
<clipPath id="clip0_271_514">
<rect width="24" height="24" fill="white"/>
</clipPath>
</defs>
</svg>
