<svg width="20" height="24" viewBox="0 0 20 24" fill="none" xmlns="http://www.w3.org/2000/svg">
<path d="M20 5.88616V18.1134C20 19.8155 20 20.6666 19.4576 20.9458C18.9152 21.2249 18.2226 20.7302 16.8375 19.7409L15.2563 18.6114C14.6404 18.1715 14.3325 17.9516 14.1663 17.6285C14 17.3055 14 16.927 14 16.1702V7.82935C14 7.07252 14 6.6941 14.1662 6.37105C14.3325 6.048 14.6404 5.82805 15.2563 5.38815L16.8375 4.25869C18.2226 3.26934 18.9152 2.77467 19.4576 3.0538C20 3.33294 20 4.18402 20 5.88616Z" fill="white"/>
<path d="M0 5.88713V18.1144C0 19.8165 -1.19209e-07 20.6676 0.54242 20.9468C1.08484 21.2259 1.77738 20.7312 3.16248 19.7419L4.74372 18.6124C5.35957 18.1725 5.6675 17.9526 5.83375 17.6295C6 17.3065 6 16.928 6 16.1712V7.83032C6 7.07349 6 6.69507 5.83375 6.37202C5.6675 6.04897 5.35957 5.82902 4.74372 5.38912L3.16248 4.25966C1.77738 3.27031 1.08484 2.77564 0.54242 3.05478C-1.19209e-07 3.33391 0 4.18499 0 5.88713Z" fill="white"/>
<path fill-rule="evenodd" clip-rule="evenodd" d="M10 22.75C9.5858 22.75 9.25 22.4142 9.25 22V18C9.25 17.5858 9.5858 17.25 10 17.25C10.4142 17.25 10.75 17.5858 10.75 18V22C10.75 22.4142 10.4142 22.75 10 22.75ZM10 14.75C9.5858 14.75 9.25 14.4142 9.25 14V10C9.25 9.58579 9.5858 9.25 10 9.25C10.4142 9.25 10.75 9.58579 10.75 10V14C10.75 14.4142 10.4142 14.75 10 14.75ZM10 6.75C9.5858 6.75 9.25 6.41421 9.25 6V2C9.25 1.58579 9.5858 1.25 10 1.25C10.4142 1.25 10.75 1.58579 10.75 2V6C10.75 6.41421 10.4142 6.75 10 6.75Z" fill="white" stroke="white"/>
</svg>
