<svg width="23" height="20" viewBox="0 0 23 20" fill="none" xmlns="http://www.w3.org/2000/svg">
<path d="M17.8634 20H5.63616C3.93402 20 3.08295 20 2.80381 19.4576C2.52467 18.9152 3.01934 18.2226 4.0087 16.8375L5.13815 15.2563C5.57805 14.6404 5.798 14.3325 6.12105 14.1662C6.44411 14 6.82252 14 7.57936 14H15.9202C16.677 14 17.0555 14 17.3785 14.1662C17.7016 14.3325 17.9215 14.6404 18.3614 15.2563L19.4909 16.8375C20.4802 18.2226 20.9749 18.9152 20.6958 19.4576C20.4166 20 19.5656 20 17.8634 20Z" fill="white"/>
<path d="M17.8634 0H5.63616C3.93402 0 3.08294 -1.19209e-07 2.80381 0.54242C2.52467 1.08484 3.01934 1.77738 4.00869 3.16247L5.13815 4.74372C5.57805 5.35957 5.798 5.6675 6.12105 5.83375C6.44411 6 6.82252 6 7.57936 6H15.9202C16.677 6 17.0555 6 17.3785 5.83375C17.7016 5.6675 17.9215 5.35957 18.3614 4.74372L19.4909 3.16248C20.4802 1.77738 20.9749 1.08484 20.6958 0.54242C20.4166 -1.19209e-07 19.5656 0 17.8634 0Z" fill="white"/>
<path fill-rule="evenodd" clip-rule="evenodd" d="M1 10C1 9.5858 1.33579 9.25 1.75 9.25H5.75C6.16421 9.25 6.5 9.5858 6.5 10C6.5 10.4142 6.16421 10.75 5.75 10.75H1.75C1.33579 10.75 1 10.4142 1 10ZM9 10C9 9.5858 9.33579 9.25 9.75 9.25H13.75C14.1642 9.25 14.5 9.5858 14.5 10C14.5 10.4142 14.1642 10.75 13.75 10.75H9.75C9.33579 10.75 9 10.4142 9 10ZM17 10C17 9.5858 17.3358 9.25 17.75 9.25H21.75C22.1642 9.25 22.5 9.5858 22.5 10C22.5 10.4142 22.1642 10.75 21.75 10.75H17.75C17.3358 10.75 17 10.4142 17 10Z" fill="white" stroke="white"/>
</svg>
