<svg width="16" height="15" viewBox="0 0 16 15" fill="none" xmlns="http://www.w3.org/2000/svg">
<g clip-path="url(#clip0_4564_19009)">
<path d="M14.1054 0.614211C14.0707 0.431393 13.9368 0.242568 13.7562 0.121422C13.6071 0.0212529 13.4428 -0.0192074 13.2972 0.00853761C5.05328 1.51087 5.01807 2.88306 5.00432 3.40881C4.98434 4.1516 5.68269 4.63164 6.41897 4.94035C6.51014 4.97856 6.61453 4.95758 6.68573 4.88914C6.81836 4.76152 7.07711 4.501 7.28015 4.29495C7.40903 4.16431 7.35609 3.94528 7.18273 3.88484C7.01764 3.82739 6.82958 3.75121 6.68297 3.66206C6.51761 3.56166 6.51864 3.32338 6.68795 3.22998C7.37929 2.84808 9.14762 2.15574 13.5931 1.34528C13.7612 1.31481 13.9071 1.22164 14.004 1.08353C14.1004 0.945393 14.1364 0.778806 14.1054 0.614211Z" fill="white"/>
<path d="M14.6378 8.80717C14.5169 7.40976 13.2398 6.60503 11.713 6.0528C11.6226 6.02007 11.5207 6.04307 11.4523 6.11049C11.3032 6.25759 11.0347 6.52309 10.8341 6.72642C10.71 6.85231 10.7527 7.0636 10.9168 7.13002C11.786 7.48244 13.2826 8.2627 13.3408 8.93406C13.4554 10.2603 10.8112 12.134 8.366 12.9859C6.40513 13.6688 4.53265 13.6291 4.00342 13.6013C3.64402 13.5814 3.34079 13.8758 3.32306 14.2595C3.31457 14.4443 3.37427 14.6216 3.49114 14.7587C3.60778 14.8958 3.76789 14.9763 3.94145 14.9855C4.09131 14.9933 4.28913 15.0003 4.52741 15.0003C5.55019 15.0003 7.11645 14.8794 8.7711 14.3027C11.246 13.4408 14.8508 11.2661 14.6378 8.80717Z" fill="white"/>
<path d="M4.09546 12.3711L2.19652 10.4721C2.12884 10.4044 2.01294 10.4351 1.98771 10.5276L1.33308 12.9275C1.30935 13.014 1.33408 13.1064 1.39751 13.1698C1.44497 13.2173 1.50867 13.243 1.57409 13.243C1.59606 13.243 1.61803 13.24 1.63977 13.2343L4.03999 12.5799C4.13243 12.5546 4.16316 12.439 4.09546 12.3711Z" fill="white"/>
<path d="M9.72792 7.01394L7.55323 4.83925C7.50454 4.79056 7.42535 4.79056 7.37665 4.83925L7.15713 5.05878C7.10843 5.10748 7.10843 5.1864 7.15713 5.23536L9.33181 7.41005C9.3805 7.45874 9.4597 7.45874 9.50839 7.41005L9.72792 7.19052C9.77664 7.14183 9.77664 7.06266 9.72792 7.01394Z" fill="white"/>
<path d="M8.9785 7.76296L6.80382 5.58828C6.75512 5.53958 6.67593 5.53958 6.62724 5.58828L2.41152 9.80403C2.36283 9.85272 2.36283 9.93191 2.41152 9.9806L4.58621 12.1553C4.6349 12.204 4.71409 12.204 4.76278 12.1553L8.97853 7.93954C9.02723 7.89085 9.02722 7.81169 8.9785 7.76296Z" fill="white"/>
<path d="M11.2417 5.3241L9.24361 3.32599C9.1462 3.22858 8.98784 3.22858 8.89046 3.32599L7.90664 4.30981C7.85794 4.3585 7.85794 4.4377 7.90664 4.48639L10.0813 6.66108C10.13 6.70977 10.2092 6.70977 10.2579 6.66108L11.2417 5.67726C11.3391 5.57987 11.3391 5.42152 11.2417 5.3241Z" fill="white"/>
</g>
<defs>
<clipPath id="clip0_4564_19009">
<rect width="15" height="15" fill="white" transform="translate(0.485352)"/>
</clipPath>
</defs>
</svg>
