<svg width="17" height="16" viewBox="0 0 17 16" fill="none" xmlns="http://www.w3.org/2000/svg">
<path d="M7.5946 1.04296C6.79479 1.18651 6.04479 1.6494 5.57604 2.28515C5.49987 2.38768 5.35631 2.62206 5.25963 2.80663C5.05456 3.19335 4.86413 3.44237 4.62682 3.64159C4.39538 3.83788 4.19323 3.94628 3.49889 4.24511C2.42956 4.71093 2.20397 4.85155 1.7821 5.31737C1.43639 5.69823 1.17565 6.18456 1.05553 6.67968C0.976432 7.01366 0.982292 7.83984 1.07018 8.15331C1.21081 8.66308 1.3485 8.90331 2.06921 9.89648C2.25671 10.1572 2.45592 10.459 2.50866 10.5615C2.56139 10.6728 2.69616 11.1006 2.83678 11.6074C2.96569 12.0791 3.12096 12.5801 3.18249 12.7207C3.62487 13.7226 4.57116 14.4258 5.70495 14.5928C6.01256 14.6367 6.61022 14.6133 6.90612 14.5459C7.02624 14.5166 7.29577 14.4287 7.50378 14.3496C8.02526 14.1504 8.23913 14.1123 8.6903 14.1299C9.02135 14.1416 9.18541 14.1709 10.246 14.4111C11.6786 14.7363 11.8397 14.7656 12.2557 14.7656C13.6122 14.7685 14.7899 13.9805 15.288 12.7383C15.4169 12.4219 15.4637 12.1816 15.4784 11.7627C15.496 11.291 15.4755 11.1416 15.2264 10.1074C15.0946 9.55663 15.0741 9.43651 15.0712 9.15526C15.0682 8.66015 15.1034 8.55175 15.6073 7.58788C15.7919 7.23339 15.9032 6.91405 15.9618 6.583C16.0116 6.29003 15.9823 5.63671 15.9061 5.35546C15.8679 5.21462 15.8206 5.07754 15.7647 4.94491C15.465 4.23326 14.919 3.64948 14.2128 3.29882C14.1305 3.25826 14.0525 3.22282 13.9738 3.1914C13.6488 3.06169 13.3124 3.00043 12.619 2.92968C11.5965 2.82128 11.3124 2.6953 10.618 2.0244C9.96471 1.39745 9.55749 1.17772 8.79577 1.04003C8.5028 0.984365 7.90514 0.987294 7.5946 1.04296ZM8.65807 1.64248C9.15319 1.74502 9.66002 1.74991 10.2313 2.55371C11.0282 3.31836 11.5204 3.53808 12.7362 3.66113C13.3835 3.72724 13.6734 3.78817 13.9736 3.92915C13.9927 3.93811 14.0119 3.9474 14.0311 3.95703C14.4717 4.17732 14.8202 4.52407 15.0389 4.94828C15.1198 5.10517 15.1829 5.27264 15.2264 5.44824C15.2792 5.65332 15.2264 5.44824 15.4736 5.94824C15.4561 6.37597 15.4863 6.64355 15.1758 7.21484C14.8213 7.87402 14.5352 8.41504 14.4736 8.94824C14.4297 9.34668 14.5723 9.86523 14.792 10.7793C14.9678 11.5176 14.9736 11.5498 14.9736 11.9482C14.9736 12.3232 14.8652 12.396 14.792 12.6069C14.5254 13.3687 13.7176 13.9023 12.909 14.1045C12.701 14.1572 12.5985 14.1631 12.2938 14.1514C11.9628 14.1396 11.8016 14.1104 10.5975 13.8379C9.15612 13.5156 8.54492 13.5 8.03809 13.5469C7.68652 13.5791 7.39648 13.6523 6.97461 13.8164C6.51172 13.998 6.22754 14.0508 5.82617 14.0303C5.01465 13.9892 4.32617 13.585 3.92187 12.9111C3.77539 12.6709 3.72559 12.5215 3.47363 11.6074C3.17187 10.4912 3.15612 10.2803 2.3153 9.13183C1.9696 8.66308 1.88171 8.50194 1.7821 8.15331C1.71178 7.90722 1.70592 7.84863 1.71764 7.52636C1.74401 6.91113 1.86413 6.19949 2.30358 5.75418C2.60534 5.44949 2.55078 5.35254 3.47363 4.94824C4.23828 4.61425 4.65137 4.50585 4.97363 4.24511C5.32519 3.96093 5.59473 3.61815 5.82617 3.15819C6.12207 2.14638 6.84753 1.84756 7.5946 1.65127C7.85827 1.58388 8.35045 1.57802 8.65807 1.64248Z" fill="#2A7378"/>
<path d="M13.9737 3.19823C13.9737 3.19595 13.9737 3.19367 13.9738 3.1914M15.7236 4.94828C15.7376 4.94828 15.7514 4.94712 15.7647 4.94491M15.7647 4.94491C15.465 4.23326 14.919 3.64948 14.2128 3.29882C14.1305 3.25826 14.0525 3.22282 13.9738 3.1914M15.7647 4.94491C15.8206 5.07754 15.8679 5.21462 15.9061 5.35546C15.9823 5.63671 16.0116 6.29003 15.9618 6.583C15.9032 6.91405 15.7919 7.23339 15.6073 7.58788C15.1034 8.55175 15.0682 8.66015 15.0712 9.15526C15.0741 9.43651 15.0946 9.55663 15.2264 10.1074C15.4755 11.1416 15.496 11.291 15.4784 11.7627C15.4637 12.1816 15.4169 12.4219 15.288 12.7383C14.7899 13.9805 13.6122 14.7685 12.2557 14.7656C11.8397 14.7656 11.6786 14.7363 10.246 14.4111C9.18541 14.1709 9.02135 14.1416 8.6903 14.1299C8.23913 14.1123 8.02526 14.1504 7.50378 14.3496C7.29577 14.4287 7.02624 14.5166 6.90612 14.5459C6.61022 14.6133 6.01256 14.6367 5.70495 14.5928C4.57116 14.4258 3.62487 13.7226 3.18249 12.7207C3.12096 12.5801 2.96569 12.0791 2.83678 11.6074C2.69616 11.1006 2.56139 10.6728 2.50866 10.5615C2.45592 10.459 2.25671 10.1572 2.06921 9.89648C1.3485 8.90331 1.21081 8.66308 1.07018 8.15331C0.982292 7.83984 0.976432 7.01366 1.05553 6.67968C1.17565 6.18456 1.43639 5.69823 1.7821 5.31737C2.20397 4.85155 2.42956 4.71093 3.49889 4.24511C4.19323 3.94628 4.39538 3.83788 4.62682 3.64159C4.86413 3.44237 5.05456 3.19335 5.25963 2.80663C5.35631 2.62206 5.49987 2.38768 5.57604 2.28515C6.04479 1.6494 6.79479 1.18651 7.5946 1.04296C7.90514 0.987294 8.5028 0.984365 8.79577 1.04003C9.55749 1.17772 9.96471 1.39745 10.618 2.0244C11.3124 2.6953 11.5965 2.82128 12.619 2.92968C13.3124 3.00043 13.6488 3.06169 13.9738 3.1914M8.65807 1.64248C9.15319 1.74502 9.66002 1.74991 10.2313 2.55371C11.0282 3.31836 11.5204 3.53808 12.7362 3.66113C13.3835 3.72724 13.6734 3.78817 13.9736 3.92915C13.9927 3.93811 14.0119 3.9474 14.0311 3.95703C14.4717 4.17732 14.8202 4.52407 15.0389 4.94828C15.1198 5.10517 15.1829 5.27264 15.2264 5.44824C15.2792 5.65332 15.2264 5.44824 15.4736 5.94824C15.4561 6.37597 15.4863 6.64355 15.1758 7.21484C14.8213 7.87402 14.5352 8.41504 14.4736 8.94824C14.4297 9.34668 14.5723 9.86523 14.792 10.7793C14.9678 11.5176 14.9736 11.5498 14.9736 11.9482C14.9736 12.3232 14.8652 12.396 14.792 12.6069C14.5254 13.3687 13.7176 13.9023 12.909 14.1045C12.701 14.1572 12.5985 14.1631 12.2938 14.1514C11.9628 14.1396 11.8016 14.1104 10.5975 13.8379C9.15612 13.5156 8.54492 13.5 8.03809 13.5469C7.68652 13.5791 7.39648 13.6523 6.97461 13.8164C6.51172 13.998 6.22754 14.0508 5.82617 14.0303C5.01465 13.9892 4.32617 13.585 3.92187 12.9111C3.77539 12.6709 3.72559 12.5215 3.47363 11.6074C3.17187 10.4912 3.15612 10.2803 2.3153 9.13183C1.9696 8.66308 1.88171 8.50194 1.7821 8.15331C1.71178 7.90722 1.70592 7.84863 1.71764 7.52636C1.74401 6.91113 1.86413 6.19949 2.30358 5.75418C2.60534 5.44949 2.55078 5.35254 3.47363 4.94824C4.23828 4.61425 4.65137 4.50585 4.97363 4.24511C5.32519 3.96093 5.59473 3.61815 5.82617 3.15819C6.12207 2.14638 6.84753 1.84756 7.5946 1.65127C7.85827 1.58388 8.35045 1.57802 8.65807 1.64248Z" stroke="white"/>
</svg>
