<svg width="43" height="42" viewBox="0 0 43 42" fill="none" xmlns="http://www.w3.org/2000/svg">
<path d="M12.075 0C5.40658 0 0 5.40658 0 12.075C0 14.7008 0.860847 17.1103 2.29173 19.0835C2.31739 19.1308 2.32142 19.1837 2.3506 19.2289L10.4006 31.3039C10.7739 31.8639 11.4028 32.2 12.075 32.2C12.7472 32.2 13.3761 31.8639 13.7494 31.3039L21.7994 19.2289C21.8291 19.1837 21.8326 19.1308 21.8583 19.0835C23.2892 17.1103 24.15 14.7008 24.15 12.075C24.15 5.40658 18.7434 0 12.075 0ZM12.075 16.1C9.85219 16.1 8.05 14.2978 8.05 12.075C8.05 9.85219 9.85219 8.05 12.075 8.05C14.2978 8.05 16.1 9.85219 16.1 12.075C16.1 14.2978 14.2978 16.1 12.075 16.1Z" fill="white"/>
<path d="M27.1472 40.6384C27.3914 40.8731 27.7185 41.0029 28.0579 41C28.3974 40.997 28.7221 40.8615 28.9621 40.6227C29.2022 40.3839 29.3384 40.0609 29.3413 39.7232C29.3443 39.3855 29.2138 39.0601 28.9779 38.8172L23.4198 33.2879H40.7053C41.0487 33.2879 41.378 33.1523 41.6208 32.9107C41.8636 32.6692 42 32.3415 42 32C42 31.6584 41.8636 31.3307 41.6208 31.0892C41.378 30.8478 41.0487 30.712 40.7053 30.712H23.4198L28.9779 25.1827C29.2138 24.9398 29.3443 24.6145 29.3413 24.2768C29.3384 23.9391 29.2022 23.616 28.9621 23.3772C28.7221 23.1384 28.3974 23.003 28.0579 23C27.7185 22.9971 27.3914 23.1269 27.1472 23.3615L19.3791 31.0894C19.1363 31.3309 19 31.6584 19 32C19 32.3415 19.1363 32.6691 19.3791 32.9106L27.1472 40.6384Z" fill="white" stroke="white" stroke-width="2"/>
</svg>
