<svg width="15" height="15" viewBox="0 0 15 15" fill="none" xmlns="http://www.w3.org/2000/svg">
<g clip-path="url(#clip0_4559_19064)">
<path d="M3.25 8.99999H8.75002V3.5H3.25V8.99999Z" fill="white"/>
<path d="M8.75001 6.25V9.00001H6V11.75H11.5V6.25H8.75001Z" fill="white"/>
<path d="M0.25 1.75H1.75V0.25H0.25V1.75Z" fill="white"/>
<path d="M2.00001 2.00001H0V0H2.00001V2.00001ZM0.50001 1.5H1.5V0.50001H0.50001V1.5Z" fill="white"/>
<path d="M13.25 1.75H14.75V0.25H13.25V1.75Z" fill="white"/>
<path d="M15 2.00001H13V0H15V2.00001ZM13.5 1.5H14.5V0.50001H13.5V1.5Z" fill="white"/>
<path d="M0.25 14.75H1.75V13.25H0.25V14.75Z" fill="#DEF2F1"/>
<path d="M2.00001 15H0V13H2.00001V15ZM0.50001 14.5H1.5V13.5H0.50001V14.5Z" fill="white"/>
<path d="M13.25 14.75H14.75V13.25H13.25V14.75Z" fill="white"/>
<path d="M15 15H13V13H15V15ZM13.5 14.5H14.5V13.5H13.5V14.5Z" fill="white"/>
<path d="M13.5 14.25H1.5V13.5H0.75V1.5H1.5V0.75H13.5V1.5H14.25V13.5H13.5V14.25ZM2.00001 13.75H13V13H13.75V2.00001H13V1.25001H2.00001V2.00001H1.25001V13H2.00001V13.75Z" fill="white"/>
<path d="M9 9.25H3V3.25H9V9.25ZM3.50001 8.75002H8.50002V3.75001H3.50001V8.75002Z" fill="#2A7378"/>
<path d="M11.75 12H5.75V8.75001H8.50001V6H11.75V12ZM6.24998 11.5H11.25V6.50001H8.99999V9.25002H6.24998V11.5Z" fill="#2A7378"/>
</g>
<defs>
<clipPath id="clip0_4559_19064">
<rect width="15" height="15" fill="white"/>
</clipPath>
</defs>
</svg>
