<svg width="15" height="15" viewBox="0 0 15 15" fill="none" xmlns="http://www.w3.org/2000/svg">
<g clip-path="url(#clip0_4598_18943)">
<path d="M2.5 15H12.5C13.875 15 15 13.875 15 12.5V2.5C15 1.125 13.875 0 12.5 0H2.5C1.125 0 0 1.125 0 2.5V12.5C0 13.875 1.125 15 2.5 15ZM12.5 1.25C13.1875 1.25 13.75 1.8125 13.75 2.5V12.5C13.75 13.1875 13.1875 13.75 12.5 13.75H2.5C1.8125 13.75 1.25 13.1875 1.25 12.5V2.5C1.25 1.8125 1.8125 1.25 2.5 1.25H12.5Z" fill="#2A7378"/>
<path d="M10 15C10.375 15 10.625 14.75 10.625 14.375V0.625C10.625 0.25 10.375 0 10 0C9.625 0 9.375 0.25 9.375 0.625V14.375C9.375 14.75 9.625 15 10 15Z" fill="#2A7378"/>
<path d="M6.25 8.125C6.4375 8.125 6.5625 8.0625 6.6875 7.9375C6.9375 7.6875 6.9375 7.3125 6.6875 7.0625L4.8125 5.1875C4.5625 4.9375 4.1875 4.9375 3.9375 5.1875C3.6875 5.4375 3.6875 5.8125 3.9375 6.0625L5.8125 7.9375C5.9375 8.0625 6.0625 8.125 6.25 8.125Z" fill="#2A7378"/>
<path d="M4.375 10C4.5625 10 4.6875 9.9375 4.8125 9.8125L6.6875 7.9375C6.9375 7.6875 6.9375 7.3125 6.6875 7.0625C6.4375 6.8125 6.0625 6.8125 5.8125 7.0625L3.9375 8.9375C3.6875 9.1875 3.6875 9.5625 3.9375 9.8125C4.0625 9.9375 4.1875 10 4.375 10Z" fill="#2A7378"/>
</g>
<defs>
<clipPath id="clip0_4598_18943">
<rect width="15" height="15" fill="white" transform="matrix(-1 0 0 1 15 0)"/>
</clipPath>
</defs>
</svg>
