<svg width="15" height="15" viewBox="0 0 15 15" fill="none" xmlns="http://www.w3.org/2000/svg">
<g clip-path="url(#clip0_4601_18978)">
<path d="M12.5 15H2.5C1.125 15 0 13.875 0 12.5V2.5C0 1.125 1.125 0 2.5 0H12.5C13.875 0 15 1.125 15 2.5V12.5C15 13.875 13.875 15 12.5 15ZM2.5 1.25C1.8125 1.25 1.25 1.8125 1.25 2.5V12.5C1.25 13.1875 1.8125 13.75 2.5 13.75H12.5C13.1875 13.75 13.75 13.1875 13.75 12.5V2.5C13.75 1.8125 13.1875 1.25 12.5 1.25H2.5Z" fill="#2A7378"/>
<path d="M5 15C4.625 15 4.375 14.75 4.375 14.375V0.625C4.375 0.25 4.625 0 5 0C5.375 0 5.625 0.25 5.625 0.625V14.375C5.625 14.75 5.375 15 5 15Z" fill="#2A7378"/>
<path d="M8.75 8.125C8.5625 8.125 8.4375 8.0625 8.3125 7.9375C8.0625 7.6875 8.0625 7.3125 8.3125 7.0625L10.1875 5.1875C10.4375 4.9375 10.8125 4.9375 11.0625 5.1875C11.3125 5.4375 11.3125 5.8125 11.0625 6.0625L9.1875 7.9375C9.0625 8.0625 8.9375 8.125 8.75 8.125Z" fill="#2A7378"/>
<path d="M10.625 10C10.4375 10 10.3125 9.9375 10.1875 9.8125L8.3125 7.9375C8.0625 7.6875 8.0625 7.3125 8.3125 7.0625C8.5625 6.8125 8.9375 6.8125 9.1875 7.0625L11.0625 8.9375C11.3125 9.1875 11.3125 9.5625 11.0625 9.8125C10.9375 9.9375 10.8125 10 10.625 10Z" fill="#2A7378"/>
</g>
<defs>
<clipPath id="clip0_4601_18978">
<rect width="15" height="15" fill="white"/>
</clipPath>
</defs>
</svg>
