<svg width="100" height="100" viewBox="0 0 100 100" fill="none" xmlns="http://www.w3.org/2000/svg">
<rect x="100" width="100" height="100" transform="rotate(90 100 0)" fill="#D9D9D9"/>
<rect x="100" width="60" height="100" transform="rotate(90 100 0)" fill="black"/>
<path d="M70.1209 33.7094L53.0543 30.4955L53.0147 42.1386L29.8784 26.2901L48.6544 29.5041L48.6954 17.8617L70.1209 33.7094ZM72.9999 33.7116C72.9999 33.6347 72.9971 33.5578 72.9914 33.4823C72.9503 32.9795 72.7804 32.6462 72.5119 32.251C72.362 32.0284 72.1813 31.8278 71.975 31.6549C71.9131 31.603 71.8487 31.554 71.7821 31.5081L50.4315 15.5464C49.5584 14.9162 48.406 14.8236 47.443 15.3079C46.4799 15.7914 45.8695 16.7692 45.8616 17.841L45.8012 26.0637L30.4074 23.4785C29.0845 23.2328 27.7658 23.9307 27.2346 25.1592C27.0796 25.5162 26.9997 25.9008 27 26.2894C27 27.1846 27.4232 27.9202 28.1876 28.4722L51.324 44.4538C52.1971 45.0841 53.3509 45.176 54.3126 44.6924C55.2756 44.2088 55.886 43.2311 55.8939 42.1592L55.9083 33.9366L69.4436 36.494C69.6652 36.5482 69.8926 36.5755 70.1209 36.5752C71.6785 36.5752 72.9482 35.3481 72.9986 33.8127C73 33.7786 72.9999 33.745 72.9999 33.7116Z" fill="#FFC10A"/>
<path d="M70.1209 33.7094L53.0543 30.4955L53.0147 42.1386L29.8784 26.2901L48.6544 29.5041L48.6954 17.8617L70.1209 33.7094Z" fill="#FFC10A"/>
<path d="M63.3589 85.4004L71.5009 77.491L79.6429 85.4004H63.3589Z" fill="black" stroke="black" stroke-width="2" stroke-linecap="round" stroke-linejoin="round"/>
<path d="M19.3589 85.4004L27.5009 77.491L35.6429 85.4004H19.3589Z" fill="black" stroke="black" stroke-width="2" stroke-linecap="round" stroke-linejoin="round"/>
</svg>
