<svg width="15" height="15" viewBox="0 0 15 15" fill="none" xmlns="http://www.w3.org/2000/svg">
<g clip-path="url(#clip0_4556_19053)">
<path d="M7.62531 0H7.37535C6.89292 0 6.50049 0.392432 6.50049 0.874863V14.1252C6.50049 14.6076 6.89292 15 7.37535 15H7.62531C8.10774 15 8.50018 14.6076 8.50018 14.1252V0.874863C8.50018 0.392432 8.10774 0 7.62531 0Z" fill="white"/>
<path d="M5.80409 2.00572C5.68936 1.98097 5.57262 2.03821 5.5234 2.14471L0.774198 12.393C0.738192 12.4705 0.744462 12.5607 0.790194 12.6325C0.836425 12.7047 0.915936 12.7482 1.00116 12.7482H5.75036C5.88835 12.7482 6.00032 12.6362 6.00032 12.4982V2.24991C6.00032 2.1327 5.91882 2.03121 5.80409 2.00572Z" fill="white"/>
<path d="M14.2259 12.3928L9.47666 2.14452C9.42741 2.03829 9.31119 1.9813 9.19597 2.00553C9.08147 2.03079 9 2.13227 9 2.24949V12.4978C9 12.6358 9.11197 12.7477 9.24996 12.7477H13.9992C14.0844 12.7477 14.1639 12.7042 14.2099 12.6322C14.2556 12.5603 14.2619 12.4701 14.2259 12.3928Z" fill="white"/>
</g>
<defs>
<clipPath id="clip0_4556_19053">
<rect width="15" height="15" fill="white"/>
</clipPath>
</defs>
</svg>
