<svg width="24" height="24" viewBox="0 0 24 24" fill="none" xmlns="http://www.w3.org/2000/svg">
<path d="M22.3071 8.02645C22.1571 8.01322 21.9643 8 21.75 8C21.3321 8 21 8.40992 21 8.92562V15.0744C21 15.5901 21.3321 16 21.75 16C21.9643 16 22.1464 15.9868 22.3286 15.9736C24 15.7355 24 14.281 24 13.2231V10.7636C24 9.70579 24 8.25124 22.3071 8.02645Z" fill="white"/>
<path d="M13.4275 2H6.57248C1.53563 2 0 3.7337 0 9.42025V14.5798C0 20.2663 1.53563 22 6.57248 22H13.4275C18.4644 22 20 20.2663 20 14.5798V9.42025C20 3.7337 18.4644 2 13.4275 2ZM12.9361 14.3301C12.9115 14.3856 12.8747 14.4411 12.8378 14.4827L10.5405 17.5201C10.3563 17.7559 10.0983 17.8807 9.84029 17.8807C9.63145 17.8807 9.41032 17.7975 9.23833 17.6311C8.85749 17.2566 8.80835 16.6047 9.14005 16.1609L11.3514 13.2344C11.3636 13.1928 11.3514 13.1512 11.3268 13.1096C11.3022 13.0541 11.2531 13.0264 11.1916 13.0264H8.74693C8.02211 13.0264 7.38329 12.6103 7.01474 11.9029C6.65848 11.1956 6.65848 10.3634 7.01474 9.65603L9.11548 6.5215C9.4226 6.0638 10 5.96671 10.4054 6.31345C10.8108 6.66019 10.8968 7.31207 10.5897 7.76976L8.56265 10.8072C8.59951 10.7517 8.59951 10.8072 8.62408 10.8766C8.64865 10.932 8.69779 10.9598 8.75921 10.9598H11.2285C11.9533 10.9598 12.5921 11.3759 12.9607 12.0832C13.2924 12.7906 13.2924 13.6227 12.9361 14.3301Z" fill="white"/>
</svg>
