<svg width="16" height="16" viewBox="0 0 16 16" fill="none" xmlns="http://www.w3.org/2000/svg">
<path d="M13 8C13 8.5523 13.4477 9 14 9C14.5523 9 15 8.5523 15 8C15 7.4477 14.5523 7 14 7C13.4477 7 13 7.4477 13 8Z" stroke="white" stroke-width="2" stroke-linecap="round" stroke-linejoin="round"/>
<path d="M7 8C7 8.5523 7.4477 9 8 9C8.5523 9 9 8.5523 9 8C9 7.4477 8.5523 7 8 7C7.4477 7 7 7.4477 7 8Z" stroke="white" stroke-width="2" stroke-linecap="round" stroke-linejoin="round"/>
<path d="M1 8C1 8.5523 1.44772 9 2 9C2.55228 9 3 8.5523 3 8C3 7.4477 2.55228 7 2 7C1.44772 7 1 7.4477 1 8Z" stroke="white" stroke-width="2" stroke-linecap="round" stroke-linejoin="round"/>
</svg>
