<svg width="15" height="15" viewBox="0 0 15 15" fill="none" xmlns="http://www.w3.org/2000/svg">
<g clip-path="url(#clip0_4556_18989)">
<path d="M9.25852 5.4873H5.74145C5.60253 5.4873 5.49023 5.59986 5.49023 5.73853V9.25559C5.49023 9.39425 5.60253 9.50681 5.74145 9.50681H9.25852C9.39744 9.50681 9.50974 9.39425 9.50974 9.25559V5.73853C9.50974 5.59986 9.39744 5.4873 9.25852 5.4873Z" fill="white"/>
<path d="M10.016 2.99075L7.69627 0.0914478C7.60055 -0.0278784 7.39931 -0.0278784 7.3036 0.0914478L4.98411 2.99075C4.92382 3.06611 4.91227 3.16938 4.95396 3.25654C4.99592 3.34369 5.08384 3.39898 5.18031 3.39898H6.37887V4.59754C6.37887 4.7362 6.49117 4.84876 6.6301 4.84876H8.37004C8.50896 4.84876 8.62126 4.7362 8.62126 4.59754V3.39898H9.81982C9.91653 3.39898 10.0042 3.34372 10.0462 3.25654C10.0879 3.16964 10.0763 3.06614 10.016 2.99075Z" fill="white"/>
<path d="M4.60058 6.37642H3.40201V5.17785C3.40201 5.08138 3.34649 4.99319 3.25983 4.9515C3.17241 4.90981 3.06917 4.92136 2.99379 4.98191L0.0942188 7.30114C0.0346582 7.3489 0 7.421 0 7.49734C0 7.57372 0.0346582 7.64582 0.0942188 7.69355L2.99379 10.013C3.03926 10.0495 3.09478 10.0681 3.15079 10.0681C3.18771 10.0681 3.22515 10.0598 3.2598 10.0432C3.34673 10.0012 3.40198 9.91331 3.40198 9.81684V8.61827H4.60055C4.73947 8.61827 4.85177 8.50571 4.85177 8.36705V6.62737C4.85177 6.48871 4.73924 6.37642 4.60058 6.37642Z" fill="white"/>
<path d="M10.0457 11.7377C10.0042 11.6506 9.91653 11.5953 9.81982 11.5953H8.62126V10.3967C8.62126 10.2581 8.50896 10.1455 8.37004 10.1455H6.6301C6.49117 10.1455 6.37887 10.2581 6.37887 10.3967V11.5953H5.18031C5.0836 11.5953 4.99592 11.6506 4.95396 11.7377C4.91227 11.8247 4.92382 11.9282 4.98411 12.0035L7.3036 14.9031C7.35133 14.9626 7.42369 14.9973 7.4998 14.9973C7.57592 14.9973 7.64828 14.9626 7.696 14.9031L10.0155 12.0035C10.0758 11.9282 10.0874 11.8249 10.0457 11.7377Z" fill="white"/>
<path d="M14.906 7.30141L12.0064 4.98191C11.9308 4.92136 11.8271 4.90981 11.7404 4.9515C11.6535 4.99346 11.5982 5.08138 11.5982 5.17785V6.37642H10.3997C10.2607 6.37642 10.1484 6.48897 10.1484 6.62764V8.36732C10.1484 8.50598 10.2607 8.61854 10.3997 8.61854H11.5982V9.8171C11.5982 9.91357 11.6537 10.0018 11.7404 10.0434C11.7753 10.06 11.8122 10.0683 11.8494 10.0683C11.9054 10.0683 11.9609 10.0495 12.0064 10.0133L14.906 7.69381C14.9655 7.64632 15.0002 7.57398 15.0002 7.49761C15.0002 7.42126 14.9656 7.34916 14.906 7.30141Z" fill="white"/>
</g>
<defs>
<clipPath id="clip0_4556_18989">
<rect width="15" height="15" fill="white"/>
</clipPath>
</defs>
</svg>
