<svg width="24" height="24" viewBox="0 0 24 24" fill="none" xmlns="http://www.w3.org/2000/svg">
<path d="M12.435 10.5788C12.3334 10.4776 12.2231 10.3923 12.1071 10.318L4.34575 2.56697C3.58858 1.81113 2.36016 1.81077 1.60263 2.56733C0.845101 3.32353 0.845101 4.55002 1.60263 5.30694L8.28676 11.9825L1.56815 18.6929C0.810618 19.4491 0.810618 20.6752 1.56815 21.4325C1.94709 21.8113 2.44385 22 2.93953 22C3.43521 22 3.93232 21.8113 4.31091 21.4325L12.1071 13.6456C12.2231 13.5713 12.3341 13.4859 12.435 13.3848C12.8222 12.9981 13.009 12.4887 12.9997 11.9818C13.009 11.4749 12.8222 10.9659 12.435 10.5788Z" fill="white"/>
<path d="M21.435 10.5788C21.3334 10.4776 21.2231 10.3923 21.1071 10.318L13.3457 2.56697C12.5886 1.81113 11.3602 1.81077 10.6026 2.56733C9.8451 3.32353 9.8451 4.55002 10.6026 5.30694L17.2868 11.9825L10.5681 18.6929C9.81062 19.4491 9.81062 20.6752 10.5681 21.4325C10.9471 21.8113 11.4438 22 11.9395 22C12.4352 22 12.9323 21.8113 13.3109 21.4325L21.1071 13.6456C21.2231 13.5713 21.3341 13.4859 21.435 13.3848C21.8222 12.9981 22.009 12.4887 21.9997 11.9818C22.009 11.4749 21.8222 10.9659 21.435 10.5788Z" fill="white"/>
</svg>
