<svg width="24" height="24" viewBox="0 0 24 24" fill="none" xmlns="http://www.w3.org/2000/svg">
<path d="M17.435 10.5788C17.3334 10.4776 17.2231 10.3923 17.1071 10.318L9.34575 2.56697C8.58858 1.81113 7.36016 1.81077 6.60263 2.56733C5.8451 3.32353 5.8451 4.55002 6.60263 5.30694L13.2868 11.9825L6.56815 18.6929C5.81062 19.4491 5.81062 20.6752 6.56815 21.4325C6.94709 21.8113 7.44385 22 7.93953 22C8.43521 22 8.93232 21.8113 9.31091 21.4325L17.1071 13.6456C17.2231 13.5713 17.3341 13.4859 17.435 13.3848C17.8222 12.9981 18.009 12.4887 17.9997 11.9818C18.009 11.4749 17.8222 10.9659 17.435 10.5788Z" fill="white"/>
</svg>
