<svg width="25" height="25" viewBox="0 0 25 25" fill="none" xmlns="http://www.w3.org/2000/svg">
<path fill-rule="evenodd" clip-rule="evenodd" d="M12.4619 1.46191C6.38678 1.46191 1.46191 6.38679 1.46191 12.4619C1.46191 15.2007 2.46281 17.7057 4.11878 19.631L2.73985 21.0099C2.41554 21.3343 2.41554 21.8601 2.73985 22.1843C3.06418 22.5087 3.58999 22.5087 3.9143 22.1843L5.29325 20.8054C7.21857 22.4612 9.72336 23.4619 12.4619 23.4619C18.537 23.4619 23.4619 18.5369 23.4619 12.4619C23.4619 9.72338 22.4612 7.21858 20.8054 5.29325L22.1843 3.91426C22.5087 3.58993 22.5087 3.06411 22.1843 2.7398C21.8601 2.41549 21.3343 2.41549 21.0099 2.7398L19.631 4.11878C17.7057 2.46281 15.2006 1.46191 12.4619 1.46191ZM18.5115 5.23821C16.8747 3.86601 14.7648 3.03978 12.4619 3.03978C7.25821 3.03978 3.03978 7.25822 3.03978 12.4619C3.03978 14.7649 3.866 16.8749 5.2382 18.5115L18.5115 5.23821ZM6.41269 19.686C8.04937 21.0579 10.1592 21.884 12.4619 21.884C17.6655 21.884 21.884 17.6656 21.884 12.4619C21.884 10.1592 21.0579 8.04939 19.686 6.4127L6.41269 19.686Z" fill="white" stroke="white" stroke-width="2"/>
</svg>
