<svg width="15" height="15" viewBox="0 0 15 15" fill="none" xmlns="http://www.w3.org/2000/svg">
<path d="M9.50002 0.75H8.25001C8.18102 0.75 8.125 0.694014 8.125 0.62499V0.12501C8.125 0.0560156 8.06901 0 7.99999 0H4.99999C4.931 0 4.87498 0.0559863 4.87498 0.12501V0.62502C4.87498 0.694014 4.81899 0.750029 4.74997 0.750029H3.75001C3.68102 0.750029 3.625 0.806016 3.625 0.875039V1.62504C3.625 1.69403 3.68099 1.75005 3.75001 1.75005H9.50002C9.56901 1.75005 9.62503 1.69406 9.62503 1.62504V0.875039C9.625 0.805986 9.56901 0.75 9.50002 0.75Z" fill="white"/>
<path d="M11.75 1.25H10.25C10.181 1.25 10.125 1.30599 10.125 1.37501V2.12501C10.125 2.194 10.069 2.25002 10 2.25002H3.25C3.18101 2.25002 3.12499 2.19403 3.12499 2.12501V1.37501C3.12499 1.30602 3.069 1.25 2.99998 1.25H1.50001C1.43102 1.25 1.375 1.30599 1.375 1.37501V13.125C1.375 13.194 1.43099 13.25 1.50001 13.25H4C4.06899 13.25 4.12501 13.1947 4.12501 13.1258C4.12451 12.1085 4.12202 5.15524 4.12425 3.748C4.12448 3.61001 4.23625 3.5 4.37424 3.5H10.8235C10.8565 3.5 10.8882 3.51324 10.9115 3.5365L11.6615 4.2865C11.7402 4.36525 11.875 4.3095 11.875 4.19826V1.37498C11.875 1.30599 11.819 1.25 11.75 1.25Z" fill="white"/>
<path d="M13.5 7.50001H10.25C10.181 7.50001 10.125 7.44402 10.125 7.375V4.12501C10.125 4.05602 10.069 4 10 4H4.75001C4.68102 4 4.625 4.05599 4.625 4.12501V14.875C4.625 14.944 4.68099 15 4.75001 15H13.5C13.569 15 13.625 14.944 13.625 14.875V7.62502C13.625 7.556 13.569 7.50001 13.5 7.50001Z" fill="white"/>
<path d="M13.4117 6.78663L10.8385 4.21363C10.7597 4.13488 10.625 4.19063 10.625 4.30187V6.87514C10.625 6.94413 10.681 7.00015 10.75 7.00015H13.3233C13.4345 7.00012 13.4905 6.86538 13.4117 6.78663Z" fill="white"/>
</svg>
