<svg width="17" height="17" viewBox="0 0 17 17" fill="none" xmlns="http://www.w3.org/2000/svg">
<path fill-rule="evenodd" clip-rule="evenodd" d="M9.20314 1H7.79689C7.66753 1 7.56253 1.10687 7.56253 1.23854L7.56251 2.1589L2.64064 5.9807H1.23439C1.10503 5.9807 1.00003 6.08758 1.00003 6.21925L1 7.65063C1 7.7823 1.105 7.88917 1.23437 7.88917H1.72857L3.75427 14.0915H3.57814C3.44878 14.0915 3.34378 14.1984 3.34378 14.3301L3.34375 15.7615C3.34375 15.8931 3.44875 16 3.57812 16H4.98437C5.11373 16 5.21873 15.8931 5.21873 15.7615V15.2245H11.7813L11.7812 15.7615C11.7812 15.8931 11.8863 16 12.0156 16H13.4219C13.5512 16 13.6562 15.8931 13.6562 15.7615V14.3301C13.6563 14.1984 13.5513 14.0915 13.4219 14.0915H13.2458L15.2714 7.88921H15.7656C15.895 7.88921 16 7.78233 16 7.65066V6.21934C16 6.08762 15.895 5.98074 15.7657 5.98074H14.3594L9.43748 2.15962V1.2386C9.43751 1.10687 9.33251 1 9.20314 1ZM9.20312 2.90847H7.79687C7.73745 2.90847 7.68318 2.88592 7.64185 2.84879L2.87498 6.55495V7.65063C2.87498 7.7823 2.76998 7.88917 2.64062 7.88917H2.3471L4.37233 14.0915H4.98439C5.11376 14.0915 5.21876 14.1984 5.21873 14.3301V14.6282H11.7813L11.7813 14.3301C11.7813 14.1984 11.8863 14.0915 12.0156 14.0915H12.629L14.6548 7.88921H14.3594C14.23 7.88921 14.125 7.78233 14.125 7.65066L14.125 6.55405L9.35893 2.84807C9.31751 2.88563 9.26291 2.90847 9.20312 2.90847Z" fill="#2A7378" stroke="white"/>
</svg>
