<svg width="100" height="100" viewBox="0 0 100 100" fill="none" xmlns="http://www.w3.org/2000/svg">
<rect x="100" width="100" height="100" transform="rotate(90 100 0)" fill="#A1C3D1"/>
<path d="M63.3584 85.4004L71.501 77.4912L79.6426 85.4004H63.3584Z" fill="#458797" stroke="#458797" stroke-width="2" stroke-linecap="round" stroke-linejoin="round"/>
<path d="M19.3584 85.4004L27.501 77.4912L35.6426 85.4004H19.3584Z" fill="#458797" stroke="#458797" stroke-width="2" stroke-linecap="round" stroke-linejoin="round"/>
<path fill-rule="evenodd" clip-rule="evenodd" d="M0 1.05677L0.596659 0.539169L1.16945 0H50H98.8305L99.4033 0.539169L100 1.05677V30.4091V59.7399H50.1432C10.4773 59.7399 0.26253 59.8046 0.167064 59.9987C0.0954654 60.1497 0.0238664 46.9508 0.0238664 30.6679L0 1.05677ZM74.8181 39.4237L63.7674 39.359H54.7516H50.177C48.8166 36.2523 46.8282 31.7062 45.3287 28.243C39.021 13.6466 38.1131 11.6515 37.7308 11.3869C37.468 11.2036 36.0822 11.1426 32.7851 11.1426C30.854 11.1426 29.7114 11.1518 29.0106 11.1943C28.2375 11.2411 28.0022 11.3285 27.8393 11.4887C27.6243 11.6922 25.2589 16.8427 22.559 22.95C19.8592 29.0573 16.4425 36.7729 14.9612 40.1116C12.8108 44.8956 12.3091 46.2596 12.5002 46.5242C12.7392 46.8296 13.3365 46.8703 17.1354 46.9314C20.8388 46.9721 21.5794 46.9314 21.9139 46.6667C22.0605 46.5543 25.9297 37.3937 29.0258 30.0186C30.9766 25.3717 32.6204 21.4337 32.8328 20.9143C32.986 21.2718 33.8741 23.4113 35.0797 26.3158C38.1998 33.8329 43.4467 46.4735 43.5845 46.6057C43.919 46.9314 44.4924 46.9721 48.4825 46.9721C48.745 47.3387 87.6344 47.3387 88.0401 46.9721C88.4697 46.5839 88.4458 40.0276 88.0162 39.7041C87.7776 39.5531 83.8396 39.4453 74.8181 39.4237Z" fill="#458797"/>
</svg>
