<svg width="100" height="100" viewBox="0 0 100 100" fill="none" xmlns="http://www.w3.org/2000/svg">
<rect x="100" width="100" height="100" transform="rotate(90 100 0)" fill="#B39CB8"/>
<path d="M63.3584 85.4004L71.501 77.4912L79.6426 85.4004H63.3584Z" fill="#464866" stroke="#464866" stroke-width="2" stroke-linecap="round" stroke-linejoin="round"/>
<path d="M19.3584 85.4004L27.501 77.4912L35.6426 85.4004H19.3584Z" fill="#464866" stroke="#464866" stroke-width="2" stroke-linecap="round" stroke-linejoin="round"/>
<path fill-rule="evenodd" clip-rule="evenodd" d="M0.692886 0.386795L0.119463 0.77359L0.0477852 30.109L0 59.4444H49.9117H99.8472L99.9667 59.9941C100.014 60.3198 100.014 47.1484 99.9428 30.7401L99.8233 0.916096L99.3216 0.447868L98.8438 0H50.0311C2.36537 0 1.24242 0 0.692886 0.386795ZM62.3597 30.5365C56.0521 15.9401 55.1442 13.945 54.7619 13.6804C54.4991 13.4971 53.1133 13.4361 49.8161 13.4361C45.7544 13.4361 45.1809 13.4768 44.8703 13.7822C44.6553 13.9857 42.2899 19.1362 39.5901 25.2435C36.8902 31.3508 33.4736 39.0664 31.9922 42.4051C29.8419 47.1891 29.3401 48.5531 29.5313 48.8177C29.7702 49.1231 30.3675 49.1638 34.1664 49.2249C37.8698 49.2656 38.6105 49.2249 38.945 48.9602C39.1839 48.777 49.3144 24.5514 49.8639 23.2078C50.017 23.5653 50.9051 25.7048 52.1107 28.6093C55.2309 36.1263 60.4777 48.767 60.6156 48.8992C60.9501 49.2249 61.5235 49.2656 65.5135 49.2656C69.4319 49.2656 70.0293 49.2249 70.1726 48.9399C70.2443 48.7566 69.2886 46.3137 67.9745 43.4026C66.7082 40.5118 64.1756 34.7302 62.3597 30.5365Z" fill="#464866"/>
</svg>
