<svg width="100" height="100" viewBox="0 0 100 100" fill="none" xmlns="http://www.w3.org/2000/svg">
<rect x="100" width="100" height="100" transform="rotate(90 100 0)" fill="#A1C3D1"/>
<path d="M63.3584 85.4004L71.501 77.4912L79.6426 85.4004H63.3584Z" fill="#458797" stroke="#458797" stroke-width="2" stroke-linecap="round" stroke-linejoin="round"/>
<path d="M19.3584 85.4004L27.501 77.4912L35.6426 85.4004H19.3584Z" fill="#458797" stroke="#458797" stroke-width="2" stroke-linecap="round" stroke-linejoin="round"/>
<path d="M0.596659 0.539169L0 1.05677L0.0238664 30.6679C0.0238664 46.9508 0.0954654 60.1497 0.167064 59.9987C0.26253 59.8046 10.4773 59.7399 50.1432 59.7399H100V30.4091V1.05677L99.4033 0.539169L98.8306 0H50H1.16945L0.596659 0.539169ZM34.1921 12.8754C34.4546 13.1557 34.5501 15.6575 34.6455 26.2899L34.7649 39.3593L60.8157 39.424C69.8371 39.4456 73.7751 39.5534 74.0137 39.7044C74.4433 40.0279 74.4672 46.5842 74.0376 46.9724C73.6319 47.339 26.173 47.339 25.9105 46.9724C25.815 46.8214 25.7195 39.1652 25.6957 29.9131C25.6718 15.8084 25.7195 13.0695 26.0059 12.8107C26.2446 12.5734 27.1992 12.5087 30.0871 12.5087C33.309 12.5087 33.9296 12.5519 34.1921 12.8754Z" fill="#458797"/>
</svg>
