<svg width="500" height="500" viewBox="0 0 500 500" fill="none" xmlns="http://www.w3.org/2000/svg">
<path d="M1 250C1 387.519 112.481 499 250 499C387.519 499 499 387.519 499 250C499 112.481 387.519 1 250 1C112.481 1 1 112.481 1 250Z" fill="#97C2E3"/>
<path d="M314.5 133L441.2 250L314.5 367V133Z" fill="white"/>
<g opacity="0.5">
<path d="M198.2 117.2V107.7H172.5V90.2002H245.1V118.8C245.1 127.4 243.2 134.1 239.4 139C235.6 143.9 230.2 146.3 223.2 146.3C218.2 146.3 214 145.3 210.7 143.2C207.4 141.2 204.7 138 202.6 133.6L173.3 148.8H172.6V130L198.2 117.2ZM211.7 107.7V118.8C211.7 122.1 212.6 124.6 214.3 126.3C216 128 218.5 128.8 221.6 128.8C224.7 128.8 227.2 128 229 126.3C230.8 124.6 231.7 122.1 231.7 118.8V107.7H211.7Z" fill="black"/>
<path d="M207.3 218.3C200.2 218.3 194 217 188.5 214.4C183 211.8 178.9 208 175.9 203.2C173 198.4 171.5 192.9 171.5 186.7C171.5 180.5 172.9 175 175.8 170.2C178.6 165.4 182.7 161.7 188 159C193.3 156.3 199.3 154.9 206.2 154.8H210.3C217.4 154.8 223.7 156.1 229.1 158.7C234.5 161.3 238.7 165 241.7 169.9C244.7 174.8 246.1 180.3 246.1 186.5C246.1 192.6 244.6 198.1 241.7 203C238.8 207.8 234.6 211.6 229.2 214.2C223.8 216.9 217.6 218.2 210.6 218.3H207.3ZM210.4 200.5C217.6 200.5 223.1 199.3 226.8 196.9C230.5 194.5 232.4 191 232.4 186.6C232.4 177.8 225.8 173.2 212.7 172.7H207.4C200.3 172.7 194.8 173.9 191 176.2C187.2 178.6 185.3 182.1 185.3 186.7C185.3 191.1 187.2 194.5 190.9 196.9C194.7 199.3 200.1 200.5 207.1 200.5H210.4Z" fill="black"/>
<path d="M172.5 227.3H245.1V253.4C245.1 262.7 243.4 269.8 240 274.7C236.6 279.6 231.6 282 225.1 282C221.3 282 218.1 281.1 215.5 279.4C212.8 277.7 210.9 275.1 209.6 271.8C208.6 275.6 206.7 278.5 204 280.5C201.3 282.5 198 283.5 194 283.5C186.9 283.5 181.5 281.2 178 276.7C174.4 272.2 172.6 265.5 172.5 256.7V227.3ZM214.9 244.8V253.9C214.9 257.7 215.6 260.4 217 262.1C218.4 263.7 220.4 264.5 223 264.5C226.1 264.5 228.3 263.6 229.6 261.9C231 260.1 231.6 257.3 231.6 253.4V244.8H214.9ZM203.4 244.8H186V256.3C186 259.5 186.7 261.9 188.2 263.6C189.6 265.3 191.7 266.1 194.3 266.1C200.3 266.1 203.4 263.1 203.4 257.1V244.8Z" fill="black"/>
<path d="M207.3 354.601C200.2 354.601 194 353.301 188.5 350.701C183 348.101 178.9 344.301 175.9 339.501C173 334.701 171.5 329.201 171.5 323.001C171.5 316.801 172.9 311.301 175.8 306.501C178.6 301.701 182.7 298.001 188 295.301C193.3 292.601 199.3 291.201 206.2 291.101H210.3C217.4 291.101 223.7 292.401 229.1 295.001C234.5 297.601 238.7 301.301 241.7 306.201C244.7 311.101 246.1 316.601 246.1 322.801C246.1 328.901 244.6 334.401 241.7 339.301C238.8 344.101 234.6 347.901 229.2 350.501C223.8 353.201 217.6 354.501 210.6 354.601H207.3ZM210.4 336.801C217.6 336.801 223.1 335.601 226.8 333.201C230.5 330.801 232.4 327.301 232.4 322.901C232.4 314.101 225.8 309.501 212.7 309.001H207.4C200.3 309.001 194.8 310.201 191 312.501C187.2 314.901 185.3 318.401 185.3 323.001C185.3 327.401 187.2 330.801 190.9 333.201C194.7 335.601 200.1 336.801 207.1 336.801H210.4Z" fill="black"/>
<path d="M231.6 416.4V394.6H172.5V377.1H231.6V355.7H245.1V416.4H231.6Z" fill="black"/>
</g>
<path d="M27.1 250C27.1 258.947 34.353 266.2 43.3 266.2C52.247 266.2 59.5 258.947 59.5 250C59.5 241.053 52.247 233.8 43.3 233.8C34.353 233.8 27.1 241.053 27.1 250Z" fill="white"/>
<path d="M39.6 175.3C39.6 184.247 46.853 191.5 55.8 191.5C64.747 191.5 72 184.247 72 175.3C72 166.353 64.747 159.1 55.8 159.1C46.853 159.1 39.6 166.353 39.6 175.3Z" fill="white"/>
<path d="M39.6 324.7C39.6 333.647 46.853 340.9 55.8 340.9C64.747 340.9 72 333.647 72 324.7C72 315.753 64.747 308.5 55.8 308.5C46.853 308.5 39.6 315.753 39.6 324.7Z" fill="white"/>
<path d="M76.8998 113.1C76.8998 122.047 84.1528 129.3 93.0998 129.3C102.047 129.3 109.3 122.047 109.3 113.1C109.3 104.153 102.047 96.9004 93.0998 96.9004C84.1528 96.9004 76.8998 104.153 76.8998 113.1Z" fill="white"/>
<path d="M76.8998 387C76.8998 395.947 84.1528 403.2 93.0998 403.2C102.047 403.2 109.3 395.947 109.3 387C109.3 378.053 102.047 370.8 93.0998 370.8C84.1528 370.8 76.8998 378.053 76.8998 387Z" fill="white"/>
</svg>
