<svg width="100" height="100" viewBox="0 0 100 100" fill="none" xmlns="http://www.w3.org/2000/svg">
<rect x="100" y="100" width="100" height="100" transform="rotate(180 100 100)" fill="#D9D9D9"/>
<rect x="100" y="100" width="60" height="100" transform="rotate(180 100 100)" fill="black"/>
<path d="M66.2906 70.1209L69.5045 53.0543L57.8614 53.0147L73.7099 29.8784L70.4959 48.6544L82.1383 48.6954L66.2906 70.1209ZM66.2884 72.9999C66.3653 72.9999 66.4422 72.9971 66.5177 72.9914C67.0205 72.9503 67.3538 72.7804 67.749 72.5119C67.9716 72.362 68.1722 72.1813 68.3451 71.975C68.397 71.9131 68.446 71.8487 68.4919 71.7821L84.4536 50.4315C85.0838 49.5584 85.1764 48.406 84.6921 47.443C84.2086 46.4799 83.2308 45.8695 82.159 45.8616L73.9363 45.8012L76.5215 30.4074C76.7672 29.0845 76.0693 27.7658 74.8408 27.2346C74.4838 27.0796 74.0992 26.9997 73.7106 27C72.8154 27 72.0798 27.4232 71.5278 28.1876L55.5462 51.324C54.9159 52.1971 54.824 53.3509 55.3076 54.3126C55.7912 55.2756 56.7689 55.886 57.8408 55.8939L66.0634 55.9083L63.506 69.4436C63.4518 69.6652 63.4245 69.8926 63.4248 70.1209C63.4248 71.6785 64.6519 72.9482 66.1873 72.9986C66.2214 73 66.255 72.9999 66.2884 72.9999Z" fill="#FFC10A"/>
<path d="M66.2906 70.1209L69.5045 53.0543L57.8614 53.0147L73.7099 29.8784L70.4959 48.6544L82.1383 48.6954L66.2906 70.1209Z" fill="#FFC10A"/>
<g clip-path="url(#clip0_4679_18942)">
<path d="M14.5991 63.3584L22.5083 71.501L14.5991 79.6426V63.3584Z" fill="black" stroke="black" stroke-width="2" stroke-linecap="round" stroke-linejoin="round"/>
</g>
<g clip-path="url(#clip1_4679_18942)">
<path d="M14.5991 19.3584L22.5083 27.501L14.5991 35.6426V19.3584Z" fill="black" stroke="black" stroke-width="2" stroke-linecap="round" stroke-linejoin="round"/>
</g>
<defs>
<clipPath id="clip0_4679_18942">
<rect width="25" height="17" fill="white" transform="matrix(0 -1 1 0 11 84)"/>
</clipPath>
<clipPath id="clip1_4679_18942">
<rect width="25" height="17" fill="white" transform="matrix(0 -1 1 0 11 40)"/>
</clipPath>
</defs>
</svg>
