<svg width="24" height="24" viewBox="0 0 24 24" fill="none" xmlns="http://www.w3.org/2000/svg">
<path d="M3.12651 20.8736C3.84781 21.5949 4.82609 22.0001 5.84615 22.0001H15.2226C15.5738 22.0003 15.9216 21.9312 16.2461 21.7969C16.5706 21.6626 16.8655 21.4657 17.1139 21.2174C17.3623 20.9691 17.5594 20.6742 17.6938 20.3498C17.8282 20.0253 17.8918 19.8513 17.8918 19.5001H16.3533H6.5C5.88796 19.5001 5.43278 19.4329 5 19.0001C4.56722 18.5673 4.5 18.1121 4.5 17.5001V17.0057V6.10828C3.79085 6.10828 3.28459 6.38442 2.78315 6.88586C2.28171 7.3873 2 8.06741 2 8.77655V18.154C2 19.1741 2.40522 20.1523 3.12651 20.8736Z" fill="white"/>
<path d="M20 2H8C6.897 2 6 2.897 6 4V16C6 17.103 6.897 18 8 18H20C21.103 18 22 17.103 22 16V4C22 2.897 21.103 2 20 2ZM18 11H15V14C14.3073 14.6341 13.8282 14.6362 13 14V11H10C9.25071 10.1983 9.15525 9.74047 10 9H13V6C13.8496 5.27391 14.2766 5.24516 15 6V9H18C18.7992 9.81428 18.8058 10.2524 18 11Z" fill="white"/>
</svg>
