<svg width="434" height="434" viewBox="0 0 434 434" fill="none" xmlns="http://www.w3.org/2000/svg">
<path fill-rule="evenodd" clip-rule="evenodd" d="M367 392C353.2 392 342 380.8 342 367C342 353.2 353.2 342 367 342C380.8 342 392 353.2 392 367C392 380.8 380.8 392 367 392ZM318.775 354.5H115.225C110.7 337 97.0125 323.313 79.5 318.775V115.225C97.0125 110.7 110.7 97 115.225 79.5H318.775C323.3 97 336.987 110.7 354.5 115.225V318.775C336.987 323.313 323.3 337 318.775 354.5ZM67 392C53.2 392 42 380.8 42 367C42 353.2 53.2 342 67 342C80.8 342 92 353.2 92 367C92 380.8 80.8 392 67 392ZM42 67C42 53.2 53.2 42 67 42C80.8 42 92 53.2 92 67C92 80.8 80.8 92 67 92C53.2 92 42 80.8 42 67ZM367 42C380.8 42 392 53.2 392 67C392 80.8 380.8 92 367 92C353.2 92 342 80.8 342 67C342 53.2 353.2 42 367 42ZM379.5 318.775V115.225C401.025 109.662 417 90.275 417 67C417 39.3875 394.613 17 367 17C343.725 17 324.337 32.975 318.775 54.5H115.225C109.663 32.975 90.275 17 67 17C39.3875 17 17 39.3875 17 67C17 90.275 32.975 109.662 54.5 115.225V318.775C32.975 324.35 17 343.738 17 367C17 394.613 39.3875 417 67 417C90.275 417 109.663 401.038 115.225 379.5H318.775C324.337 401.038 343.725 417 367 417C394.613 417 417 394.613 417 367C417 343.738 401.025 324.35 379.5 318.775Z" fill="white" stroke="white" stroke-width="33.33"/>
</svg>
