<svg width="17" height="13" viewBox="0 0 17 13" fill="none" xmlns="http://www.w3.org/2000/svg">
<path d="M15.75 1H14.25C14.112 1 14 1.112 14 1.24999V1.75H2.00002C1.86203 1.75 1.75003 1.862 1.75003 1.99999V9.75001H1.24999C1.112 9.75001 1 9.86201 1 10V11.5C1 11.638 1.112 11.75 1.24999 11.75H2.74999C2.88798 11.75 2.99998 11.638 2.99998 11.5V11H15C15.138 11 15.25 10.888 15.25 10.75V10.5V3.00001H15.75C15.888 3.00001 16 2.88801 16 2.75002V1.25002C16 1.112 15.888 1 15.75 1ZM14.75 10.5H3.00001V10C3.00001 9.86201 2.88801 9.75001 2.75002 9.75001H2.25001V2.25001H14V2.75002C14 2.88801 14.112 3.00001 14.25 3.00001H14.75V10.5H14.75Z" fill="#2A7378" stroke="white"/>
</svg>
