<svg width="15" height="15" viewBox="0 0 15 15" fill="none" xmlns="http://www.w3.org/2000/svg">
<path d="M11.625 3.75H1.77953C1.41678 3.75 1.08353 3.99451 1.01453 4.3505C0.921543 4.82923 1.28752 5.24999 1.75003 5.24999H11.625C11.694 5.24999 11.75 5.19401 11.75 5.12498V3.87498C11.75 3.80602 11.694 3.75 11.625 3.75Z" fill="white" stroke="white"/>
<path d="M13.9115 4.30917L10.6615 1.55917C10.5873 1.49642 10.4833 1.48218 10.3948 1.52317C10.3065 1.56442 10.25 1.65266 10.25 1.75016V7.25013C10.25 7.34763 10.3065 7.43587 10.3948 7.47689C10.4285 7.49265 10.4642 7.50015 10.5 7.50015C10.558 7.50015 10.6155 7.4799 10.6615 7.44114L13.9115 4.69115C13.9678 4.64339 14 4.57364 14 4.50016C14 4.42668 13.9677 4.35693 13.9115 4.30917Z" fill="white" stroke="white"/>
<path d="M4.60523 7.52317C4.51672 7.48218 4.41272 7.49642 4.33848 7.55917L1.08851 10.3091C1.03226 10.3566 1 10.4264 1 10.4999C1 10.5734 1.03226 10.6432 1.08851 10.6909L4.33848 13.4409C4.38448 13.4796 4.44199 13.4999 4.5 13.4999C4.53574 13.4999 4.57151 13.4924 4.60526 13.4766C4.6935 13.4356 4.75001 13.3474 4.75001 13.2499V7.74993C4.74999 7.65243 4.6935 7.56416 4.60523 7.52317Z" fill="white" stroke="white"/>
<path d="M13.9855 10.3505C13.9162 9.99451 13.583 9.75 13.2205 9.75H3.37501C3.30602 9.75 3.25 9.80599 3.25 9.87501V11.125C3.25 11.194 3.30599 11.25 3.37501 11.25H13.25C13.7125 11.25 14.0785 10.8293 13.9855 10.3505Z" fill="white" stroke="white"/>
</svg>
