<svg width="25" height="24" viewBox="0 0 25 24" fill="none" xmlns="http://www.w3.org/2000/svg">
<path d="M17.197 18.707C17.0084 18.8892 16.7558 18.99 16.4936 18.9877C16.2314 18.9854 15.9806 18.8802 15.7952 18.6948C15.6098 18.5094 15.5046 18.2586 15.5023 17.9964C15.5 17.7342 15.6008 17.4816 15.783 17.293L20.076 13H2.48999C2.22477 13 1.97042 12.8947 1.78288 12.7071C1.59535 12.5196 1.48999 12.2652 1.48999 12C1.48999 11.7348 1.59535 11.4804 1.78288 11.2929C1.97042 11.1054 2.22477 11 2.48999 11H20.076L15.783 6.70701C15.6008 6.51841 15.5 6.26581 15.5023 6.00361C15.5046 5.74141 15.6098 5.4906 15.7952 5.30519C15.9806 5.11978 16.2314 5.01461 16.4936 5.01234C16.7558 5.01006 17.0084 5.11085 17.197 5.29301L23.197 11.293C23.3845 11.4805 23.4898 11.7348 23.4898 12C23.4898 12.2652 23.3845 12.5195 23.197 12.707L17.197 18.707Z" fill="white"/>
</svg>
