<svg width="160" height="110" viewBox="0 0 160 110" fill="none" xmlns="http://www.w3.org/2000/svg">
<g clip-path="url(#clip0_4676_19009)">
<path d="M64.6999 7.20033C81.2999 7.20033 97.7999 7.30033 114.4 7.10033C119.9 7.10033 125.4 6.60033 130.9 6.00033C136.6 5.40033 142.2 4.60033 147.9 3.80033C152.8 3.10033 157.1 5.50033 158.5 10.0003C158.9 11.3003 159.1 12.8003 159 14.1003C158.4 19.5003 157.4 24.9003 156.9 30.3003C156.3 36.2003 155.9 42.2003 155.8 48.2003C155.6 63.4003 155.6 78.7003 155.6 93.9003C155.6 99.0003 151.9 102.7 146.8 102.7C131.2 102.7 115.6 102.7 99.9999 102.7C84.7999 102.7 69.5999 102.6 54.3999 102.7C48.0999 102.7 41.6999 103.1 35.3999 103.4C27.7999 103.9 20.4999 104.9 13.0999 106C11.8999 106.2 10.5999 106.2 9.29986 106.1C4.39986 105.9 0.399856 101 1.09986 96.0003C1.69986 91.5003 2.39986 87.0003 2.89986 82.4003C3.39986 77.5003 3.99986 72.6003 4.09986 67.7003C4.39986 50.7003 4.49986 33.7003 4.49986 16.6003C4.49986 11.9003 7.69986 7.30033 13.6999 7.20033C15.5999 7.20033 17.5999 7.20033 19.4999 7.20033C34.5999 7.20033 49.6999 7.20033 64.6999 7.20033Z" fill="#C1C1C1"/>
<path d="M95.4999 101.6C80.4999 101.6 65.3999 101.6 50.3999 101.6C41.0999 101.6 31.7999 102.3 22.4999 103.5C19.0999 103.9 15.7999 104.5 12.3999 104.9C6.99991 105.5 2.49991 101.8 1.99991 96.4002C1.89991 95.3002 2.09991 94.3002 2.19991 93.2002C2.99991 87.5002 3.89991 81.7002 4.39991 75.9002C4.89991 70.9002 5.19991 65.9002 5.29991 60.8002C5.49991 50.1002 5.49991 39.4002 5.49991 28.7002C5.49991 24.9002 5.39991 21.0002 5.29991 17.2002C5.29991 14.6002 6.09991 12.2002 7.99991 10.4002C9.49991 8.90017 11.3999 8.10017 13.4999 8.00017C14.0999 8.00017 14.7999 8.00017 15.3999 8.00017C47.5999 8.00017 79.7999 8.10017 112 7.90017C118 7.90017 123.9 7.40017 129.9 6.80017C135.6 6.30017 141.2 5.40017 146.9 4.60017C151.7 4.00017 155.9 6.30017 157.3 10.6002C157.7 11.9002 157.9 13.3002 157.8 14.6002C157.2 20.1002 156.3 25.5002 155.7 31.0002C155.2 35.3002 155 39.6002 154.8 43.9002C154 58.8002 154.5 73.6002 154.4 88.5002C154.4 89.6002 154.4 90.8002 154.4 91.9002C154.6 97.3002 151 101.2 145.6 101.3C145.2 101.3 144.7 101.3 144.3 101.3C128.1 101.6 111.8 101.6 95.4999 101.6Z" fill="#F3F3F3"/>
<path d="M43.1997 8.80058C51.1997 8.80058 59.0997 8.80058 67.0997 8.80058C77.3997 8.80058 87.5997 8.70058 97.8997 8.80058C113.7 9.00058 129.4 8.10057 145 5.50057C148.1 5.00057 151.1 5.30057 153.6 7.40057C156 9.50057 157.2 12.1006 156.8 15.3006C156.2 19.9006 155.4 24.5006 155 29.1006C154.4 34.7006 154 40.4006 153.8 46.1006C153.5 52.0006 153.4 58.0006 153.4 63.9006C153.4 72.9006 153.5 82.0006 153.6 91.0006C153.6 93.1006 153.3 95.1006 152.1 97.0006C150.5 99.4006 148.2 100.501 145.4 100.801C144.8 100.801 144.3 100.801 143.7 100.801C122.9 100.801 102.1 100.801 81.2998 100.801C71.0998 100.801 60.7997 100.701 50.5997 100.801C43.8997 100.901 37.2997 101.401 30.5997 101.901C24.5997 102.401 18.7997 103.401 12.9997 104.101C7.49975 104.801 2.89975 101.301 2.39975 95.9006C2.29975 94.4006 2.59975 92.9006 2.79975 91.4006C3.49975 85.4006 4.39975 79.4006 4.89975 73.4006C5.39975 68.2006 5.59975 63.0006 5.69975 57.7006C5.79975 50.3006 5.69975 42.8006 5.69975 35.4006C5.69975 29.6006 5.69975 23.8006 5.69975 18.0006C5.69975 12.4006 9.19975 8.90057 14.7997 8.90057C24.1997 8.80057 33.6997 8.80058 43.1997 8.80058Z" fill="#EAEAEA"/>
<path d="M10.3 12.5008C56.3 12.5008 102.3 12.5008 148.4 12.5008C149.3 12.9008 149.9 13.6008 150.2 14.5008C150.2 41.4008 150.2 68.4008 150.2 95.3008C149.9 96.3008 149.2 97.0008 148.2 97.3008C102.3 97.3008 56.4 97.3008 10.5 97.3008C9.5 97.0008 8.8 96.3008 8.5 95.3008C8.5 68.4008 8.5 41.4008 8.5 14.5008C8.8 13.5008 9.4 12.8008 10.3 12.5008Z" fill="#DEDEDE"/>
<path d="M12.0997 96.4004H146.9C148.2 96.4004 149.3 95.3004 149.3 94.0004V16.0004C149.3 14.7004 148.2 13.6004 146.9 13.6004H12.0997C10.7997 13.6004 9.69968 14.7004 9.69968 16.0004V94.0004C9.59968 95.3004 10.6997 96.4004 12.0997 96.4004Z" fill="#D3D3D3"/>
<path d="M12.7999 95.6006H146.1C147.4 95.6006 148.5 94.5006 148.5 93.2006V16.7006C148.5 15.4006 147.4 14.3006 146.1 14.3006H12.7999C11.4999 14.3006 10.3999 15.4006 10.3999 16.7006V93.2006C10.3999 94.5006 11.4999 95.6006 12.7999 95.6006Z" fill="white"/>
<path d="M13.6998 94.8008H145.4C146.7 94.8008 147.8 93.8008 147.8 92.5008V17.5008C147.8 16.2008 146.7 15.2008 145.4 15.2008H13.6998C12.3998 15.2008 11.2998 16.2008 11.2998 17.5008V92.5008C11.2998 93.8008 12.3998 94.8008 13.6998 94.8008Z" fill="#F3F3F3"/>
<path d="M23.3999 89.1006C25.0999 89.1006 26.3999 90.5006 26.3999 92.1006C26.3999 93.8006 24.9999 95.1006 23.3999 95.1006C21.6999 95.1006 20.3999 93.7006 20.3999 92.1006C20.3999 90.4006 21.7999 89.1006 23.3999 89.1006Z" fill="#1E1E1E"/>
<path d="M23.3998 89.5002C24.7998 89.5002 25.9998 90.7002 25.9998 92.1002C25.9998 93.5002 24.7998 94.7002 23.3998 94.7002C21.9998 94.7002 20.7998 93.5002 20.7998 92.1002C20.7998 90.6002 21.9998 89.5002 23.3998 89.5002Z" fill="#525252"/>
<path d="M24.0997 92.1008C24.0997 91.7142 23.7863 91.4008 23.3997 91.4008C23.0131 91.4008 22.6997 91.7142 22.6997 92.1008C22.6997 92.4874 23.0131 92.8008 23.3997 92.8008C23.7863 92.8008 24.0997 92.4874 24.0997 92.1008Z" fill="black"/>
<path d="M135.5 89.1006C137.2 89.1006 138.5 90.5006 138.5 92.1006C138.5 93.8006 137.1 95.1006 135.5 95.1006C133.8 95.1006 132.5 93.7006 132.5 92.1006C132.5 90.4006 133.8 89.1006 135.5 89.1006Z" fill="#1E1E1E"/>
<path d="M135.5 89.5002C136.9 89.5002 138.1 90.7002 138.1 92.1002C138.1 93.5002 136.9 94.7002 135.5 94.7002C134.1 94.7002 132.9 93.5002 132.9 92.1002C132.9 90.6002 134.1 89.5002 135.5 89.5002Z" fill="#525252"/>
<path d="M136.2 92.1008C136.2 91.7142 135.886 91.4008 135.5 91.4008C135.113 91.4008 134.8 91.7142 134.8 92.1008C134.8 92.4874 135.113 92.8008 135.5 92.8008C135.886 92.8008 136.2 92.4874 136.2 92.1008Z" fill="black"/>
<path d="M135.5 15.1006C137.2 15.1006 138.5 16.5006 138.5 18.1006C138.5 19.8006 137.1 21.1006 135.5 21.1006C133.8 21.1006 132.5 19.7006 132.5 18.1006C132.5 16.5006 133.8 15.1006 135.5 15.1006Z" fill="#1E1E1E"/>
<path d="M135.5 15.5002C136.9 15.5002 138.1 16.7002 138.1 18.1002C138.1 19.5002 136.9 20.7002 135.5 20.7002C134.1 20.7002 132.9 19.5002 132.9 18.1002C132.9 16.7002 134.1 15.5002 135.5 15.5002Z" fill="#525252"/>
<path d="M136.2 18.1008C136.2 17.7142 135.886 17.4008 135.5 17.4008C135.113 17.4008 134.8 17.7142 134.8 18.1008C134.8 18.4874 135.113 18.8008 135.5 18.8008C135.886 18.8008 136.2 18.4874 136.2 18.1008Z" fill="black"/>
<path d="M23.3999 15.1006C25.0999 15.1006 26.3999 16.5006 26.3999 18.1006C26.3999 19.8006 24.9999 21.1006 23.3999 21.1006C21.6999 21.1006 20.3999 19.7006 20.3999 18.1006C20.3999 16.5006 21.7999 15.1006 23.3999 15.1006Z" fill="#1E1E1E"/>
<path d="M23.3998 15.5002C24.7998 15.5002 25.9998 16.7002 25.9998 18.1002C25.9998 19.5002 24.7998 20.7002 23.3998 20.7002C21.9998 20.7002 20.7998 19.5002 20.7998 18.1002C20.7998 16.7002 21.9998 15.5002 23.3998 15.5002Z" fill="#525252"/>
<path d="M24.0997 18.1008C24.0997 17.7142 23.7863 17.4008 23.3997 17.4008C23.0131 17.4008 22.6997 17.7142 22.6997 18.1008C22.6997 18.4874 23.0131 18.8008 23.3997 18.8008C23.7863 18.8008 24.0997 18.4874 24.0997 18.1008Z" fill="black"/>
<path d="M129.9 22.1004C131.7 22.1004 133.2 23.6004 133.2 25.4004V29.6004C133.2 31.4004 131.7 32.9004 129.9 32.9004C128.1 32.9004 126.6 31.4004 126.6 29.6004V25.4004C126.5 23.6004 128 22.1004 129.9 22.1004Z" fill="#1E1E1E"/>
<path d="M129.9 22.5C131.5 22.5 132.8 23.8 132.8 25.4V29.6C132.8 31.2 131.5 32.5 129.9 32.5C128.3 32.5 127 31.2 127 29.6V25.4C126.9 23.9 128.3 22.5 129.9 22.5Z" fill="#525252"/>
<path d="M131.8 25.2006C131.8 24.1512 130.949 23.3006 129.9 23.3006C128.851 23.3006 128 24.1512 128 25.2006C128 26.2499 128.851 27.1006 129.9 27.1006C130.949 27.1006 131.8 26.2499 131.8 25.2006Z" fill="#757575"/>
<path d="M131.6 25.2004C131.6 24.2615 130.839 23.5004 129.9 23.5004C128.961 23.5004 128.2 24.2615 128.2 25.2004C128.2 26.1393 128.961 26.9004 129.9 26.9004C130.839 26.9004 131.6 26.1393 131.6 25.2004Z" fill="#282828"/>
<path d="M131.2 25.201C131.2 24.483 130.618 23.901 129.9 23.901C129.182 23.901 128.6 24.483 128.6 25.201C128.6 25.9189 129.182 26.501 129.9 26.501C130.618 26.501 131.2 25.9189 131.2 25.201Z" fill="#4B4B4B"/>
<path d="M130.3 26.0002C130.3 25.8897 130.21 25.8002 130.1 25.8002C129.989 25.8002 129.9 25.8897 129.9 26.0002C129.9 26.1107 129.989 26.2002 130.1 26.2002C130.21 26.2002 130.3 26.1107 130.3 26.0002Z" fill="black"/>
<path d="M130.3 24.4006C130.3 24.2901 130.21 24.2006 130.1 24.2006C129.989 24.2006 129.9 24.2901 129.9 24.4006C129.9 24.511 129.989 24.6006 130.1 24.6006C130.21 24.6006 130.3 24.511 130.3 24.4006Z" fill="black"/>
<path d="M130.9 24.801C130.9 24.6905 130.81 24.601 130.7 24.601C130.59 24.601 130.5 24.6905 130.5 24.801C130.5 24.9114 130.59 25.001 130.7 25.001C130.81 25.001 130.9 24.9114 130.9 24.801Z" fill="black"/>
<path d="M130.9 25.6008C130.9 25.4903 130.81 25.4008 130.7 25.4008C130.59 25.4008 130.5 25.4903 130.5 25.6008C130.5 25.7112 130.59 25.8008 130.7 25.8008C130.81 25.8008 130.9 25.7112 130.9 25.6008Z" fill="black"/>
<path d="M131.8 30.0004C131.8 28.951 130.949 28.1004 129.9 28.1004C128.851 28.1004 128 28.951 128 30.0004C128 31.0497 128.851 31.9004 129.9 31.9004C130.949 31.9004 131.8 31.0497 131.8 30.0004Z" fill="#757575"/>
<path d="M131.6 30.0002C131.6 29.0613 130.839 28.3002 129.9 28.3002C128.961 28.3002 128.2 29.0613 128.2 30.0002C128.2 30.9391 128.961 31.7002 129.9 31.7002C130.839 31.7002 131.6 30.9391 131.6 30.0002Z" fill="#282828"/>
<path d="M131.2 30.0008C131.2 29.2828 130.618 28.7008 129.9 28.7008C129.182 28.7008 128.6 29.2828 128.6 30.0008C128.6 30.7187 129.182 31.3008 129.9 31.3008C130.618 31.3008 131.2 30.7187 131.2 30.0008Z" fill="#4B4B4B"/>
<path d="M129.154 31.0684H130.554V28.8684H129.154V31.0684Z" fill="#6E6E6E"/>
<path d="M129.956 30.8711H130.356V29.0711H129.956V30.8711Z" fill="#353535"/>
<path d="M129.351 30.8662H129.751V29.0662H129.351V30.8662Z" fill="#353535"/>
<path d="M99.3999 24.0008C99.3999 22.2008 100.9 20.7008 102.7 20.7008H106.9C108.7 20.7008 110.2 22.2008 110.2 24.0008C110.2 25.8008 108.7 27.3008 106.9 27.3008H102.7C100.9 27.3008 99.3999 25.8008 99.3999 24.0008Z" fill="#1E1E1E"/>
<path d="M99.7998 24.0004C99.7998 22.4004 101.1 21.1004 102.7 21.1004H106.9C108.5 21.1004 109.8 22.4004 109.8 24.0004C109.8 25.6004 108.5 26.9004 106.9 26.9004H102.7C101.1 26.9004 99.7998 25.6004 99.7998 24.0004Z" fill="#525252"/>
<path d="M109.2 24.0004C109.2 22.951 108.349 22.1004 107.3 22.1004C106.251 22.1004 105.4 22.951 105.4 24.0004C105.4 25.0497 106.251 25.9004 107.3 25.9004C108.349 25.9004 109.2 25.0497 109.2 24.0004Z" fill="#757575"/>
<path d="M109 24.0002C109 23.0613 108.239 22.3002 107.3 22.3002C106.361 22.3002 105.6 23.0613 105.6 24.0002C105.6 24.9391 106.361 25.7002 107.3 25.7002C108.239 25.7002 109 24.9391 109 24.0002Z" fill="#282828"/>
<path d="M108.6 24.0008C108.6 23.2828 108.018 22.7008 107.3 22.7008C106.582 22.7008 106 23.2828 106 24.0008C106 24.7187 106.582 25.3008 107.3 25.3008C108.018 25.3008 108.6 24.7187 108.6 24.0008Z" fill="#4B4B4B"/>
<path d="M108.3 23.8C108.3 23.6895 108.21 23.6 108.1 23.6C107.989 23.6 107.9 23.6895 107.9 23.8C107.9 23.9105 107.989 24 108.1 24C108.21 24 108.3 23.9105 108.3 23.8Z" fill="black"/>
<path d="M106.7 23.8C106.7 23.6895 106.61 23.6 106.5 23.6C106.389 23.6 106.3 23.6895 106.3 23.8C106.3 23.9105 106.389 24 106.5 24C106.61 24 106.7 23.9105 106.7 23.8Z" fill="black"/>
<path d="M107.1 23.2004C107.1 23.0899 107.01 23.0004 106.9 23.0004C106.789 23.0004 106.7 23.0899 106.7 23.2004C106.7 23.3108 106.789 23.4004 106.9 23.4004C107.01 23.4004 107.1 23.3108 107.1 23.2004Z" fill="black"/>
<path d="M107.9 23.2004C107.9 23.0899 107.81 23.0004 107.7 23.0004C107.59 23.0004 107.5 23.0899 107.5 23.2004C107.5 23.3108 107.59 23.4004 107.7 23.4004C107.81 23.4004 107.9 23.3108 107.9 23.2004Z" fill="black"/>
<path d="M104.3 24.0004C104.3 22.951 103.449 22.1004 102.4 22.1004C101.351 22.1004 100.5 22.951 100.5 24.0004C100.5 25.0497 101.351 25.9004 102.4 25.9004C103.449 25.9004 104.3 25.0497 104.3 24.0004Z" fill="#757575"/>
<path d="M104.1 24.0002C104.1 23.0613 103.339 22.3002 102.4 22.3002C101.461 22.3002 100.7 23.0613 100.7 24.0002C100.7 24.9391 101.461 25.7002 102.4 25.7002C103.339 25.7002 104.1 24.9391 104.1 24.0002Z" fill="#282828"/>
<path d="M103.7 24.0008C103.7 23.2828 103.118 22.7008 102.4 22.7008C101.682 22.7008 101.1 23.2828 101.1 24.0008C101.1 24.7187 101.682 25.3008 102.4 25.3008C103.118 25.3008 103.7 24.7187 103.7 24.0008Z" fill="#4B4B4B"/>
<path d="M103.6 24.6006V23.4006H103.2V23.0006H103V22.8006H102.4H101.9V23.0006H101.7V23.4006H101.3V24.6006H103.6Z" fill="#353535"/>
<path d="M103.4 24.4004V23.6004H103V23.2004H102.8V23.0004H102.4H102.1V23.2004H101.9V23.6004H101.5V24.4004H103.4Z" fill="#565656"/>
<path d="M65.1997 71.1006H77.4997L93.6997 55.0006L77.4997 38.9006H65.1997L81.4997 55.0006L65.1997 71.1006Z" fill="#85BEDE"/>
<path d="M37 71.1006H49.3L65.5 55.0006L49.3 38.9006H37L53.2 55.0006L37 71.1006Z" fill="#C2DFEE"/>
<path d="M93.3999 71.1006H105.7L121.9 55.0006L105.7 38.9006H93.3999L109.7 55.0006L93.3999 71.1006Z" fill="#0C7EBD"/>
<path d="M141.7 71.1004V71.0004C141.7 65.7004 141.7 60.3004 141.7 55.0004C141.7 49.7004 141.7 44.4004 141.7 39.1004V39.0004C141.7 38.7004 141.9 38.5004 142 38.2004C141.9 38.2004 141.7 38.2004 141.7 38.2004C141.1 38.3004 140.7 38.7004 140.6 39.4004C140.5 39.9004 140.6 40.4004 140.6 40.9004C140.6 41.9004 140.6 42.8004 140.6 43.8004C140.6 43.9004 140.6 44.0004 140.6 44.1004C140.6 44.3004 140.6 44.4004 140.6 44.6004C140.6 44.6004 140.6 44.6004 140.6 44.7004V44.8004C140.6 44.8004 140.6 44.8004 140.6 44.9004C140.6 45.0004 140.6 45.2004 140.7 45.5004C140.7 45.3004 140.7 45.3004 140.6 45.2004C140.6 45.4004 140.6 45.5004 140.6 45.7004C140.6 45.7004 140.6 45.7004 140.6 45.8004V45.9004C140.6 46.0004 140.6 46.1004 140.6 46.2004V46.3004C140.6 46.4004 140.6 46.5004 140.6 46.7004C140.6 46.7004 140.6 46.7004 140.6 46.8004V46.9004C140.6 47.0004 140.6 47.0004 140.6 47.1004V47.2004V47.3004C140.6 48.9004 140.6 50.5004 140.6 52.1004C140.6 52.2004 140.6 52.2004 140.6 52.3004C140.7 52.4004 140.6 52.4004 140.6 52.5004C140.6 53.4004 140.6 54.2004 140.6 55.1004C140.6 55.9004 140.6 56.8004 140.6 57.6004C140.6 57.7004 140.7 57.7004 140.6 57.8004C140.6 57.9004 140.6 57.9004 140.6 58.0004C140.6 59.6004 140.6 61.2004 140.6 62.8004V62.9004V63.0004C140.6 63.1004 140.6 63.1004 140.6 63.2004V63.3004C140.6 63.3004 140.6 63.3004 140.6 63.4004C140.6 63.5004 140.6 63.6004 140.6 63.8004V63.9004C140.6 64.0004 140.6 64.1004 140.6 64.2004V64.3004C140.6 64.3004 140.6 64.3004 140.6 64.4004C140.6 64.6004 140.6 64.7004 140.6 64.9004C140.6 64.8004 140.6 64.8004 140.7 64.6004C140.7 64.9004 140.7 65.0004 140.6 65.2004C140.6 65.2004 140.6 65.2004 140.6 65.3004V65.4004C140.6 65.4004 140.6 65.4004 140.6 65.5004C140.6 65.7004 140.6 65.8004 140.6 66.0004C140.6 66.1004 140.6 66.2004 140.6 66.3004C140.6 67.3004 140.6 68.2004 140.6 69.2004C140.6 69.7004 140.6 70.2004 140.6 70.7004C140.7 71.4004 141.1 71.8004 141.7 71.9004C141.7 71.9004 141.9 71.9004 142 71.9004C141.9 71.6004 141.7 71.4004 141.7 71.1004Z" fill="#878787"/>
<path d="M141.9 71.1004V71.0004C141.9 65.7004 141.9 60.3004 141.9 55.0004C141.9 49.7004 141.9 44.4004 141.9 39.1004V39.0004C141.9 38.7004 142.1 38.5004 142.2 38.2004C142.1 38.2004 141.9 38.2004 141.9 38.2004C141.3 38.3004 140.9 38.7004 140.8 39.4004C140.7 39.9004 140.8 40.4004 140.8 40.9004C140.8 41.9004 140.8 42.8004 140.8 43.8004C140.8 43.9004 140.8 44.0004 140.8 44.1004C140.8 44.3004 140.8 44.4004 140.8 44.6004C140.8 44.6004 140.8 44.6004 140.8 44.7004V44.8004C140.8 44.8004 140.8 44.8004 140.8 44.9004C140.8 45.0004 140.8 45.2004 140.9 45.5004C140.9 45.3004 140.9 45.3004 140.8 45.2004C140.8 45.4004 140.8 45.5004 140.8 45.7004C140.8 45.7004 140.8 45.7004 140.8 45.8004V45.9004C140.8 46.0004 140.8 46.1004 140.8 46.2004V46.3004C140.8 46.4004 140.8 46.5004 140.8 46.7004C140.8 46.7004 140.8 46.7004 140.8 46.8004V46.9004C140.8 47.0004 140.8 47.0004 140.8 47.1004V47.2004V47.3004C140.8 48.9004 140.8 50.5004 140.8 52.1004C140.8 52.2004 140.8 52.2004 140.8 52.3004C140.9 52.4004 140.8 52.4004 140.8 52.5004C140.8 53.4004 140.8 54.2004 140.8 55.1004C140.8 55.9004 140.8 56.8004 140.8 57.6004C140.8 57.7004 140.9 57.7004 140.8 57.8004C140.8 57.9004 140.8 57.9004 140.8 58.0004C140.8 59.6004 140.8 61.2004 140.8 62.8004V62.9004V63.0004C140.8 63.1004 140.8 63.1004 140.8 63.2004V63.3004C140.8 63.3004 140.8 63.3004 140.8 63.4004C140.8 63.5004 140.8 63.6004 140.8 63.8004V63.9004C140.8 64.0004 140.8 64.1004 140.8 64.2004V64.3004C140.8 64.3004 140.8 64.3004 140.8 64.4004C140.8 64.6004 140.8 64.7004 140.8 64.9004C140.8 64.8004 140.8 64.8004 140.9 64.6004C140.9 64.9004 140.9 65.0004 140.8 65.2004C140.8 65.2004 140.8 65.2004 140.8 65.3004V65.4004C140.8 65.4004 140.8 65.4004 140.8 65.5004C140.8 65.7004 140.8 65.8004 140.8 66.0004C140.8 66.1004 140.8 66.2004 140.8 66.3004C140.8 67.3004 140.8 68.2004 140.8 69.2004C140.8 69.7004 140.8 70.2004 140.8 70.7004C140.9 71.4004 141.3 71.8004 141.9 71.9004C141.9 71.9004 142.1 71.9004 142.2 71.9004C142.1 71.6004 141.9 71.4004 141.9 71.1004Z" fill="#1C1C1C"/>
<path d="M143.8 55.1V55C143.8 54.4 143.8 53.7 143.8 53.1C143.8 52.3 143.8 51.5 143.8 50.6C143.8 49.2 143.8 47.9 143.8 46.5C143.8 44.9 143.8 43.4 143.8 41.8C143.8 40.9 143.9 39.9 143.5 39C143.2 38.5 142.8 37.9 142.2 38.1H142.1C141.9 38.3 141.8 38.6 141.8 38.9V39C141.8 44.3 141.8 49.6 141.8 54.9C141.8 54.9 141.8 54.9 141.8 55C141.8 55.1 141.8 55 141.8 55.1C141.8 60.4 141.8 65.7 141.8 71V71.1C141.8 71.4 141.9 71.6 142.1 71.9C142.1 71.9 142.1 71.9 142.2 71.9C142.8 72.1 143.2 71.5 143.5 71C143.9 70.1 143.8 69.2 143.8 68.2C143.8 66.6 143.8 65.1 143.8 63.5C143.8 62.1 143.8 60.8 143.8 59.4C143.8 58.6 143.8 57.8 143.8 56.9C143.8 56.3 143.8 55.7 143.8 55.1Z" fill="#7F7F7F"/>
<path d="M144 55.1V55C144 54.4 144 53.7 144 53.1C144 52.3 144 51.5 144 50.6C144 49.2 144 47.9 144 46.5C144 44.9 144 43.4 144 41.8C144 40.9 144.1 39.9 143.7 39C143.4 38.5 143 37.9 142.4 38.1H142.3C142.1 38.3 142 38.6 142 38.9V39C142 44.3 142 49.6 142 54.9C142 54.9 142 54.9 142 55C142 55.1 142 55 142 55.1C142 60.4 142 65.7 142 71V71.1C142 71.4 142.1 71.6 142.3 71.9C142.3 71.9 142.3 71.9 142.4 71.9C143 72.1 143.4 71.5 143.7 71C144.1 70.1 144 69.2 144 68.2C144 66.6 144 65.1 144 63.5C144 62.1 144 60.8 144 59.4C144 58.6 144 57.8 144 56.9C144 56.3 144 55.7 144 55.1Z" fill="#333333"/>
</g>
<defs>
<clipPath id="clip0_4676_19009">
<rect width="110" height="160" fill="white" transform="matrix(0 -1 1 0 0 110)"/>
</clipPath>
</defs>
</svg>
