<svg width="60" height="69" viewBox="0 0 60 69" fill="none" xmlns="http://www.w3.org/2000/svg">
<path d="M42.7428 0.113815C42.2898 0.336767 42.2969 0.286417 42.2969 3.98309V7.32736H30.725H19.1532L19.1244 6.26295C19.1028 5.24889 19.0956 5.18416 18.8727 4.72387C18.4843 3.90398 17.7435 3.32143 16.8805 3.16321C16.3555 3.06971 10.53 3.05533 9.8755 3.14883C9.30734 3.23513 8.88301 3.43651 8.42991 3.84645C7.70352 4.50092 7.48777 5.13381 7.48777 6.60817V7.58627L7.14255 7.70854C6.33705 8.00341 5.31579 8.88083 4.80516 9.7151C4.65413 9.96682 4.44556 10.4271 4.34487 10.7436C4.15788 11.2973 4.15069 11.3836 4.12192 13.2751L4.09315 15.2385L3.61848 15.2457C1.95713 15.2601 0.547505 16.3605 0.115986 17.9787C-0.0422372 18.5612 -0.0350452 22.8764 0.115986 23.4734C0.295786 24.1566 0.583465 24.66 1.0869 25.1635C1.82768 25.9042 2.6188 26.2423 3.61848 26.2423H4.10753V36.4342V45.6262H3.73355C2.30954 45.6334 1.01498 46.4173 0.410857 47.6472C0.267018 47.942 0.115986 48.352 0.0800264 48.5677C0.0368746 48.7763 0.00810668 49.9774 0.00810668 51.2288C0.00810668 53.7388 0.0440665 53.9977 0.446817 54.7672C0.569081 54.9974 0.871144 55.3785 1.11567 55.6087C1.82768 56.2919 2.64037 56.63 3.58252 56.63H4.10753V58.3129C4.10753 60.5136 4.2298 61.1249 4.88427 62.1678C5.36613 62.9301 6.3802 63.7716 7.14255 64.0449C7.38708 64.1312 7.41585 64.1671 7.45181 64.462C7.58126 65.5624 8.04155 66.5405 8.77513 67.2669C9.6094 68.1012 10.6163 68.5039 11.8389 68.5039C13.7232 68.4967 15.3486 67.2669 15.9383 65.3826C16.039 65.0733 16.1181 64.7425 16.1181 64.6418V64.4692H19.822C23.1447 64.4692 23.5259 64.4836 23.5259 64.5843C23.5259 64.8576 23.9214 65.8357 24.2163 66.2744C24.7197 67.0367 25.5181 67.6193 26.4386 67.8998C26.827 68.0149 27.1722 68.0292 29.9267 68.0292C33.2998 68.0292 33.3933 68.022 34.2779 67.5761C35.2632 67.0871 36.119 65.9723 36.342 64.8935L36.4283 64.4692H40.1537H43.8792V64.7137C43.8792 65.3107 44.361 66.3535 44.9724 67.0871C45.3679 67.5546 46.231 68.1012 46.907 68.3169C47.583 68.5327 48.6259 68.5614 49.2732 68.3888C50.8122 67.9789 52.0349 66.7275 52.4376 65.1453C52.5167 64.836 52.5815 64.4908 52.5887 64.3685C52.5887 64.16 52.6318 64.124 53.1424 63.8795C54.3651 63.2969 55.3288 62.1246 55.7172 60.7581C55.8107 60.4273 55.8466 59.9239 55.8682 58.4783L55.9042 56.63H56.4867C58.0618 56.6228 59.4714 55.5008 59.8813 53.933C60.0396 53.3216 60.0396 49.0136 59.8813 48.4095C59.7087 47.7479 59.4282 47.2804 58.8816 46.7338C58.1481 46.0074 57.2635 45.6262 56.3069 45.6262H55.8898V36.4342V26.2423H56.4148C58.033 26.2423 59.4642 25.1203 59.8813 23.5453C60.0396 22.9268 60.0396 18.554 59.8813 17.9355C59.7087 17.2811 59.3707 16.7201 58.8601 16.2454C58.1265 15.5622 57.3426 15.2385 56.386 15.2385H55.9042L55.8682 13.3471C55.8322 11.2182 55.7963 10.9881 55.3 9.9884C55.0627 9.51373 54.8613 9.24763 54.4154 8.80173C53.7753 8.16164 53.2863 7.84519 52.4952 7.55751L51.9702 7.36333L48.0146 7.34175L44.059 7.32018L44.0446 3.94714C44.0302 0.214499 44.0518 0.336764 43.5555 0.106621C43.2535 -0.0372188 43.0449 -0.0372162 42.7428 0.113815ZM51.6825 9.22604C52.8692 9.54249 53.761 10.4631 54.0127 11.6282C54.1277 12.1676 54.1277 59.5499 54.0127 60.0965C53.7466 61.3695 52.6894 62.3907 51.4308 62.5921C51.1143 62.6496 44.2388 62.6712 29.8908 62.6712C7.12097 62.6712 8.37238 62.6928 7.61722 62.3044C7.22885 62.103 6.58877 61.4917 6.35862 61.1034C6.25794 60.9379 6.1141 60.5999 6.04218 60.3626C5.91272 59.9383 5.90553 57.2838 5.90553 36.4055C5.90553 13.1179 5.88395 11.5275 6.27232 10.7651C6.6463 10.0316 7.61722 9.3555 8.49464 9.20447C8.72479 9.16851 17.7651 9.13975 30.1065 9.13255C47.6118 9.12536 51.3876 9.14693 51.6825 9.22604ZM14.1547 64.7569C14.0612 65.4473 13.4643 66.2097 12.7523 66.5405C12.1697 66.8138 11.3642 66.8138 10.7817 66.5405C10.0553 66.2025 9.47275 65.4617 9.37926 64.7569L9.3361 64.4692H11.767H14.1979L14.1547 64.7569ZM34.4577 64.6922C34.2851 65.2891 33.832 65.8069 33.2351 66.0802C32.9258 66.224 32.8035 66.2312 29.9627 66.2312C27.1003 66.2312 27.0068 66.224 26.6832 66.0802C26.079 65.7997 25.6259 65.2747 25.4318 64.6274L25.3886 64.4692H29.9555H34.5224L34.4577 64.6922ZM50.6396 64.613C50.6396 64.9079 50.3232 65.584 50.0355 65.8932C49.2875 66.7059 48.3742 66.9361 47.2954 66.5765C46.7847 66.411 46.1159 65.7278 45.9073 65.1668C45.6196 64.4045 45.3967 64.4692 48.1944 64.4692C50.5749 64.4692 50.6396 64.4764 50.6396 64.613Z" fill="#2A7378"/>
<path d="M51.6825 9.22604C52.8692 9.54249 53.761 10.4631 54.0127 11.6282C54.1277 12.1676 54.1277 59.5499 54.0127 60.0965C53.7466 61.3695 52.6894 62.3907 51.4308 62.5921C51.1143 62.6496 44.2388 62.6712 29.8908 62.6712C7.12097 62.6712 8.37238 62.6928 7.61722 62.3044C7.22885 62.103 6.58877 61.4917 6.35862 61.1034C6.25794 60.9379 6.1141 60.5999 6.04218 60.3626C5.91272 59.9383 5.90553 57.2838 5.90553 36.4055C5.90553 13.1179 5.88395 11.5275 6.27232 10.7651C6.6463 10.0316 7.61722 9.3555 8.49464 9.20447C8.72479 9.16851 17.7651 9.13975 30.1065 9.13255C47.6118 9.12536 51.3876 9.14693 51.6825 9.22604Z" fill="#DEF2F1"/>
<path d="M9.46573 12.6567C9.14928 12.8365 9.14928 12.8437 9.14209 15.6126V18.2665L9.35066 18.475L9.55922 18.6836H14.1549C18.391 18.6836 18.7578 18.6692 18.8944 18.5541C19.2037 18.3096 19.2109 18.2233 19.2109 15.5551V12.9875L19.0023 12.779L18.7937 12.5704H14.1981C10.8825 12.5776 9.56642 12.5992 9.46573 12.6567ZM12.5942 15.627V16.7418H11.8031H11.012V15.627V14.5122H11.8031H12.5942V15.627ZM17.3409 15.627V16.7418H16.5498H15.7587V15.627V14.5122H16.5498H17.3409V15.627Z" fill="#2A7378"/>
<path d="M41.1319 12.7789L40.8945 12.9875V15.6269V18.2664L41.1319 18.475L41.362 18.6835H45.9145C50.877 18.6835 50.6684 18.6979 50.8482 18.2664C50.9058 18.1226 50.9273 17.3386 50.913 15.4903L50.8914 12.9156L50.69 12.743L50.4886 12.5704H45.9289H41.362L41.1319 12.7789ZM44.3467 15.6269V16.7057H43.5556H42.7644L42.7429 15.6989C42.7357 15.1523 42.7429 14.656 42.7644 14.6057C42.786 14.5266 42.9802 14.5122 43.5699 14.5266L44.3467 14.5481V15.6269ZM49.0574 15.6269V16.7417H48.2663H47.4752V15.6269V14.5122H48.2663H49.0574V15.6269Z" fill="#2A7378"/>
<path d="M15.6434 50.4093C14.9673 50.5532 14.3488 50.9056 13.8166 51.445C13.0542 52.2145 12.7378 52.9841 12.7378 54.0413C12.745 55.1201 13.0686 55.8968 13.8454 56.6664C14.3919 57.2129 14.881 57.4934 15.5786 57.6732C18.0095 58.2989 20.4836 56.0838 20.1527 53.5738C19.9442 52.0491 18.7719 50.7689 17.2615 50.4093C16.7078 50.2799 16.2331 50.2799 15.6434 50.4093Z" fill="#2A7378"/>
<path d="M37.6583 50.4379C37.1333 50.6753 37.083 50.8479 37.0614 52.502C37.0326 54.1993 37.0758 54.4511 37.457 54.7387C37.7159 54.9329 37.7446 54.9401 38.845 54.9689L39.967 54.9905L40.0605 55.3069C40.2834 56.0477 41.1321 57.0114 41.8872 57.3782C42.9876 57.9104 44.1167 57.9104 45.2099 57.3782C46.5476 56.7237 47.274 55.5514 47.274 54.0411C47.2812 52.6099 46.5692 51.4304 45.3106 50.7688C44.4763 50.33 44.203 50.3013 40.8947 50.3013C38.1834 50.3013 37.9244 50.3157 37.6583 50.4379ZM44.1743 52.2143C44.9798 52.4517 45.6199 53.4154 45.5048 54.2353C45.4113 54.9185 44.9798 55.5299 44.3972 55.8103C44.0089 55.9973 43.2968 56.0261 42.8941 55.8751C42.4842 55.7168 42.0526 55.3357 41.8441 54.9473C41.6211 54.5302 41.6211 53.624 41.8441 53.214C42.067 52.7897 42.4842 52.4085 42.9013 52.2503C43.3544 52.0705 43.6636 52.0633 44.1743 52.2143Z" fill="#2A7378"/>
<path d="M25.2159 51.4011C24.9138 51.7032 24.885 51.9045 24.8994 54.0765C24.9066 56.3204 24.921 56.4571 25.2159 56.7519L25.4532 56.9893H29.9841H34.5151L34.738 56.8023C34.8603 56.7016 34.9898 56.5002 35.0329 56.3564C35.1192 56.0255 35.1264 52.2426 35.0329 51.847C34.9969 51.6744 34.8819 51.4802 34.7452 51.3579L34.5295 51.1638H29.9913H25.4532L25.2159 51.4011ZM33.2349 54.0765V55.1913H29.9985H26.7621V54.1269C26.7621 53.5371 26.7837 53.0337 26.8125 53.0121C26.834 52.9833 28.294 52.9617 30.0489 52.9617H33.2349V54.0765Z" fill="#2A7378"/>
</svg>
