<svg width="24" height="26" viewBox="0 0 24 26" fill="none" xmlns="http://www.w3.org/2000/svg">
<path d="M11.9251 18.8C11.7467 18.8 11.5785 18.7305 11.4523 18.6049L7.1961 14.3673C7.0696 14.2418 7.0001 14.074 7.0001 13.8965C7.0001 13.7191 7.06942 13.5513 7.1961 13.4255L11.4516 9.1884C11.7044 8.9372 12.1445 8.9372 12.3972 9.1884L16.6541 13.4258C16.7801 13.5513 16.8501 13.7195 16.8501 13.8969C16.8501 14.0743 16.7803 14.2418 16.6541 14.3676L12.3981 18.605C12.2719 18.7305 12.1035 18.8 11.9251 18.8Z" fill="white"/>
<path d="M3.19178 7.47951C4.95166 5.13632 7.52236 3.61516 10.4303 3.19635C12.1941 2.94374 13.9906 3.12124 15.6663 3.71612L16.8421 1.37601C16.9583 1.14433 17.202 0.976273 17.4984 1.00274C17.7759 1.02244 18.011 1.20384 18.0981 1.46547L19.6166 6.00391C19.7344 6.35768 19.542 6.74304 19.1842 6.86329L14.6288 8.37501C14.3711 8.45873 14.0747 8.37809 13.8988 8.17535C13.7164 7.96686 13.6796 7.67199 13.8036 7.42616L14.9417 5.16053C13.5663 4.7056 12.1006 4.57571 10.6598 4.78399C8.17704 5.14022 5.98332 6.43873 4.48053 8.44088C2.98207 10.4379 2.35376 12.9009 2.71221 15.3765C3.07065 17.8516 4.373 20.0378 6.37781 21.5315C8.38077 23.0235 10.8641 23.6541 13.3421 23.2974C15.8249 22.9414 18.0186 21.6429 19.5206 19.641C20.7183 18.0468 21.3643 16.1554 21.3902 14.1715C21.3958 13.7347 21.7573 13.3803 22.2054 13.3803C22.6495 13.3864 23.0055 13.7507 22.9999 14.1929C22.9694 16.5174 22.2116 18.7336 20.8095 20.6025C19.0505 22.9455 16.4806 24.4669 13.5724 24.8857C13.042 24.9614 12.506 25 11.9786 25C9.60195 25 7.33202 24.2444 5.41434 22.8156C3.06117 21.0626 1.53408 18.5023 1.11528 15.6059C0.694825 12.7099 1.43293 9.82352 3.19178 7.47951Z" fill="white" stroke="white"/>
</svg>
