<svg width="22" height="22" viewBox="0 0 22 22" fill="none" xmlns="http://www.w3.org/2000/svg">
<path fill-rule="evenodd" clip-rule="evenodd" d="M2.69235 0.846191C1.67696 0.846191 0.846191 1.67696 0.846191 2.69235V19.3077C0.846191 20.3231 1.67696 21.1539 2.69235 21.1539H19.3077C20.3231 21.1539 21.1539 20.3231 21.1539 19.3077V4.16927L17.8308 0.846191H2.69235ZM15.2462 8.00004C15.7539 8.00004 16.1231 7.58465 16.1231 7.12312V3.5H4.5385V7.12312C4.5385 7.63081 4.95388 8.00004 5.41542 8.00004H15.2462ZM17.5 18.5C18.0077 18.5 18.477 17.9615 18.477 17.5V14.5L18.5 11.5C18.5 10.9923 17.9615 10.5 17.5 10.5H4.5C3.99231 10.5 3.56927 11.0385 3.56927 11.5V17.5C3.56927 18.0077 4.03846 18.5 4.5 18.5H17.5Z" fill="white"/>
<path d="M10.4463 5.27696C10.4463 5.7385 10.8155 6.15388 11.3232 6.15388H13.4463C13.9078 6.15388 14.3232 5.78465 14.3232 5.27696V0.846191H10.4924L10.4463 5.27696Z" fill="white"/>
</svg>
