<svg width="40" height="41" viewBox="0 0 40 41" fill="none" xmlns="http://www.w3.org/2000/svg">
<g clip-path="url(#clip0_4544_18986)">
<path d="M38.3332 25.8278C37.3332 25.8278 36.6665 25.1611 36.6665 24.1611V15.8278C36.6665 14.8278 37.3332 14.1611 38.3332 14.1611C39.3332 14.1611 39.9998 14.8278 39.9998 15.8278V24.1611C39.9998 25.1611 39.3332 25.8278 38.3332 25.8278Z" fill="white"/>
<path d="M23.3335 40.8285H15.0002C14.0002 40.8285 13.3335 40.1618 13.3335 39.1618C13.3335 38.1618 14.0002 37.4951 15.0002 37.4951H23.3335C24.3335 37.4951 25.0002 38.1618 25.0002 39.1618C25.0002 40.1618 24.3335 40.8285 23.3335 40.8285Z" fill="white"/>
<path d="M1.66667 25.8278C0.666667 25.8278 0 25.1611 0 24.1611V15.8278C0 14.8278 0.666667 14.1611 1.66667 14.1611C2.66667 14.1611 3.33333 14.8278 3.33333 15.8278V24.1611C3.33333 25.1611 2.66667 25.8278 1.66667 25.8278Z" fill="white"/>
<path d="M38.3335 10.8281C37.3335 10.8281 36.6668 10.1615 36.6668 9.16146V7.49479C36.6668 5.66146 35.1668 4.16146 33.3335 4.16146H30.0002C29.0002 4.16146 28.3335 3.49479 28.3335 2.49479C28.3335 1.49479 29.0002 0.828125 30.0002 0.828125H33.3335C37.0002 0.828125 40.0002 3.82812 40.0002 7.49479V9.16146C40.0002 10.1615 39.3335 10.8281 38.3335 10.8281Z" fill="white"/>
<path d="M1.66667 10.8281C0.666667 10.8281 0 10.1615 0 9.16146V7.49479C0 3.82812 3 0.828125 6.66667 0.828125H8.33333C9.33333 0.828125 10 1.49479 10 2.49479C10 3.49479 9.33333 4.16146 8.33333 4.16146H6.66667C4.83333 4.16146 3.33333 5.66146 3.33333 7.49479V9.16146C3.33333 10.1615 2.66667 10.8281 1.66667 10.8281Z" fill="white"/>
<path d="M23.3335 4.16146H15.0002C14.0002 4.16146 13.3335 3.49479 13.3335 2.49479C13.3335 1.49479 14.0002 0.828125 15.0002 0.828125H23.3335C24.3335 0.828125 25.0002 1.49479 25.0002 2.49479C25.0002 3.49479 24.3335 4.16146 23.3335 4.16146Z" fill="white"/>
<path d="M8.33333 40.8278H6.66667C3 40.8278 0 37.8278 0 34.1611V30.8278C0 29.8278 0.666667 29.1611 1.66667 29.1611C2.66667 29.1611 3.33333 29.8278 3.33333 30.8278V34.1611C3.33333 35.9945 4.83333 37.4945 6.66667 37.4945H8.33333C9.33333 37.4945 10 38.1611 10 39.1611C10 40.1611 9.33333 40.8278 8.33333 40.8278Z" fill="white"/>
<path d="M33.3335 40.8278H30.0002C29.0002 40.8278 28.3335 40.1611 28.3335 39.1611C28.3335 38.1611 29.0002 37.4945 30.0002 37.4945H33.3335C35.1668 37.4945 36.6668 35.9945 36.6668 34.1611V30.8278C36.6668 29.8278 37.3335 29.1611 38.3335 29.1611C39.3335 29.1611 40.0002 29.8278 40.0002 30.8278V34.1611C40.0002 37.8278 37.0002 40.8278 33.3335 40.8278Z" fill="white"/>
</g>
<defs>
<clipPath id="clip0_4544_18986">
<rect width="40" height="40" fill="white" transform="translate(0 0.828125)"/>
</clipPath>
</defs>
</svg>
