<svg width="24" height="24" viewBox="0 0 24 24" fill="none" xmlns="http://www.w3.org/2000/svg">
<g clip-path="url(#clip0_205_512)">
<path d="M23.6378 4.15661C23.4465 3.6205 22.7568 3.45662 22.3473 3.86622L19.1462 7.06783L17.3013 6.69897L16.9325 4.85411L20.1336 1.65301C20.5386 1.24904 20.3848 0.55581 19.8432 0.362497C17.5758 -0.445159 15.0152 0.131076 13.3165 1.82973C11.7366 3.40914 11.1277 5.73447 11.6988 7.87431L4.95274 14.621C2.52696 14.3936 0.000488281 16.45 0.000488281 19.3043C0.000488281 21.8935 2.10672 23.9997 4.69596 23.9997C7.54385 23.9997 9.60714 21.4789 9.37919 19.0475L16.1258 12.3013C18.2657 12.8734 20.5905 12.2636 22.1699 10.6842C23.8691 8.98506 24.4453 6.42278 23.6378 4.15661ZM4.69596 20.8694C3.83289 20.8694 3.1308 20.1673 3.1308 19.3042C3.1308 18.4412 3.83289 17.7391 4.69596 17.7391C5.55902 17.7391 6.26111 18.4412 6.26111 19.3042C6.26111 20.1673 5.55907 20.8694 4.69596 20.8694Z" fill="white"/>
<path d="M19.6018 14.0001L23.3404 17.848C24.2212 18.7544 24.2185 20.2287 23.3404 21.1314L21.2136 23.3209C20.3338 24.2264 18.9027 24.2264 18.0228 23.3209L12.9999 18.1512L15.1271 15.9622L19.7076 20.6764C20.0013 20.9787 20.4773 20.9787 20.771 20.6764C21.0648 20.374 21.0648 19.8842 20.771 19.5819L16.1907 14.8678L16.9276 14.1095C17.8256 14.2401 18.7309 14.1969 19.6018 14.0001Z" fill="white"/>
<path d="M0.110901 3.39801L3.40017 8.90104C3.54131 9.13743 3.79659 9.28214 4.07165 9.28214H5.96137L6.61415 9.93487C6.86353 9.94607 7.11234 9.96478 7.35895 9.99951L10.3394 7.01957L9.28172 5.96179V4.07259C9.28172 3.79739 9.13706 3.5421 8.90062 3.40096L3.39712 0.11123C3.09018 -0.072942 2.69643 -0.0246606 2.44232 0.229449L0.229073 2.44321C-0.0245674 2.6969 -0.0735048 3.09023 0.110901 3.39801Z" fill="white"/>
</g>
<defs>
<clipPath id="clip0_205_512">
<rect width="24" height="24" fill="white"/>
</clipPath>
</defs>
</svg>
