<svg width="17" height="17" viewBox="0 0 17 17" fill="none" xmlns="http://www.w3.org/2000/svg">
<path d="M15.9927 1H14.4927C14.3547 1 14.2427 1.11174 14.2427 1.24999V2.74999C14.2427 2.88824 14.3547 2.99998 14.4927 2.99998H14.9637C14.5234 6.98822 14.0527 10.1295 12.7427 11.0765V10.75C12.7427 10.6117 12.6307 10.5 12.4927 10.5H10.9927C10.8547 10.5 10.7427 10.6117 10.7427 10.75V11.0197C10.033 10.4165 9.34848 9.24874 8.6832 8.11173C8.02446 6.98597 7.40021 5.92047 6.7427 5.37924V4.75C6.7427 4.61175 6.63069 4.50001 6.49271 4.50001H4.99268C4.85469 4.50001 4.74269 4.61175 4.74269 4.75V5.34549C3.39992 6.08397 2.57718 8.70575 2.01793 14H1.49267C1.35468 14 1.24268 14.1117 1.24268 14.25V15.75C1.24268 15.8883 1.35468 16 1.49267 16H2.99267C3.13065 16 3.24266 15.8883 3.24266 15.75V14.25C3.24266 14.1118 3.13065 14 2.99267 14H2.52066C3.01092 9.39678 3.72342 6.80477 4.74266 5.95026V6.25C4.74266 6.38825 4.85466 6.49999 4.99265 6.49999H6.49265C6.63063 6.49999 6.74264 6.38825 6.74264 6.25V6.07501C7.22937 6.61876 7.72889 7.4715 8.2514 8.36427C9.02891 9.69326 9.8319 11.063 10.7427 11.6405V12.25C10.7427 12.3883 10.8547 12.5 10.9926 12.5H12.4927C12.6307 12.5 12.7427 12.3883 12.7427 12.25V11.6613C14.4577 10.807 14.9687 7.52424 15.4667 3.00001H15.9927C16.1306 3.00001 16.2426 2.88827 16.2426 2.75002V1.25002C16.2427 1.11174 16.1307 1 15.9927 1Z" fill="#2A7378" stroke="white"/>
</svg>
