<svg width="18" height="18" viewBox="0 0 18 18" fill="none" xmlns="http://www.w3.org/2000/svg">
<path d="M14.5307 1.55699C14.5307 1.24937 14.2828 1 13.977 1C13.6712 1 13.4233 1.24937 13.4233 1.55699C13.4234 1.60562 13.4298 1.65397 13.4423 1.70092L8.5 6.55839L8.26996 6.79406H7.02342C6.88543 6.79406 6.77343 6.90606 6.77343 7.04404L7.2202 8.75145L6.77182 7.04404V8.32882L6.55185 8.55417L1.69656 13.5171C1.64999 13.5043 1.60193 13.4975 1.55365 13.4975C1.24791 13.4975 0.999973 13.7469 0.999973 14.0545C0.999973 14.3621 1.24791 14.6115 1.55365 14.6115C1.85945 14.6115 2.10733 14.3621 2.10733 14.0545C2.10728 14.0059 2.10091 13.9575 2.08834 13.9105L5.04455 10.9366C4.18917 12.6804 3.70774 14.6426 3.70774 16.7176C3.70553 16.8746 3.83271 17.0024 3.98879 17C4.14155 16.9976 4.26364 16.8712 4.26142 16.7176C4.26142 13.9337 5.16288 11.3631 6.68755 9.28377L6.98233 8.98723L7.2202 8.75145L8.46998 8.75084C8.60796 8.75084 8.71997 8.63723 8.71997 8.49924V7.26487L8.93993 7.01798L9.32956 6.62602C11.3966 5.09218 13.9519 4.18528 16.7192 4.18528C17.0936 4.19062 17.0936 3.62294 16.7192 3.62828C14.6566 3.62828 12.706 4.11265 10.9727 4.97314L13.8341 2.09449C13.8807 2.10725 13.9288 2.11399 13.977 2.11399C14.2828 2.11399 14.5307 1.86462 14.5307 1.55699Z" fill="#2A7378"/>
<path d="M7.2202 8.75145L6.98233 8.98723L6.68755 9.28377C5.16288 11.3631 4.26142 13.9337 4.26142 16.7176C4.26364 16.8712 4.14155 16.9976 3.98879 17C3.83271 17.0024 3.70553 16.8746 3.70774 16.7176C3.70774 14.6426 4.18917 12.6804 5.04455 10.9366L2.08834 13.9105C2.10091 13.9575 2.10728 14.0059 2.10733 14.0545C2.10733 14.3621 1.85945 14.6115 1.55365 14.6115C1.24791 14.6115 0.999973 14.3621 0.999973 14.0545C0.999973 13.7469 1.24791 13.4975 1.55365 13.4975C1.60193 13.4975 1.64999 13.5043 1.69656 13.5171L6.55185 8.55417L6.77182 8.32882V7.04404L7.2202 8.75145ZM7.2202 8.75145L8.46998 8.75084C8.60796 8.75084 8.71997 8.63723 8.71997 8.49924V7.26487L8.93993 7.01798L9.32956 6.62602C11.3966 5.09218 13.9519 4.18528 16.7192 4.18528C17.0936 4.19063 17.0936 3.62294 16.7192 3.62828C14.6566 3.62828 12.706 4.11265 10.9727 4.97314L13.8341 2.09449C13.8807 2.10725 13.9288 2.11399 13.977 2.11399C14.2828 2.11399 14.5307 1.86462 14.5307 1.55699C14.5307 1.24937 14.2828 1 13.977 1C13.6712 1 13.4233 1.24937 13.4233 1.55699C13.4234 1.60562 13.4298 1.65397 13.4423 1.70092L8.5 6.55839L8.26996 6.79406H7.02342C6.88543 6.79406 6.77343 6.90606 6.77343 7.04404L7.2202 8.75145Z" stroke="white"/>
</svg>
