<svg width="15" height="15" viewBox="0 0 15 15" fill="none" xmlns="http://www.w3.org/2000/svg">
<path d="M14.3819 11.0272L13.5407 10.1033C12.847 9.34193 11.7686 9.13865 10.8685 9.51471L10.2651 8.91113C10.4161 8.5536 10.4995 8.16078 10.4995 7.74897C10.4995 7.49344 10.4638 7.24116 10.4003 6.99612L14.9216 2.67923C14.9764 2.62699 14.9994 2.55598 14.9959 2.48571C14.9964 2.47997 14.9991 2.47522 14.9991 2.46945C14.9991 1.37603 14.7284 0.206624 14.139 0.0463607C14.045 -0.0188992 13.9177 -0.017141 13.8297 0.0636208L8.53646 4.93482C7.87203 4.69004 7.1251 4.69028 6.45991 4.93608L1.14112 0.063357C1.05188 -0.018401 0.921629 -0.018401 0.827644 0.0501117C0.625669 0.109364 0.389944 0.306902 0.212959 0.847238C0.0684658 1.28856 -0.00676937 1.86939 0.00122876 2.48222C0.00122876 2.48747 0.0039827 2.49198 0.00448075 2.49723C0.00149244 2.56674 0.0247251 2.63674 0.0792179 2.68849L4.59731 6.99509C4.53383 7.24063 4.50007 7.49341 4.50007 7.74894C4.50007 8.16075 4.58357 8.55357 4.73454 8.9111L4.13058 9.51521C3.8091 9.3812 3.45964 9.31644 3.10193 9.33244C2.46673 9.36244 1.88255 9.63647 1.45706 10.104L0.615884 11.0287C0.190664 11.496 -0.0270723 12.1036 0.00269362 12.7389C0.0326939 13.3742 0.306652 13.9586 0.774118 14.3839C1.21308 14.7837 1.77552 15 2.36847 15C2.4067 15 2.44546 14.999 2.48396 14.9972C3.11915 14.9672 3.70334 14.6932 4.12856 14.2256L4.96974 13.301C5.39496 12.8334 5.61269 12.2261 5.58269 11.5905C5.56544 11.2224 5.46372 10.8724 5.29248 10.5596L5.67595 10.176C5.6857 10.1663 5.69018 10.1538 5.69795 10.1428C6.20016 10.5218 6.82284 10.7494 7.49905 10.7494C8.17523 10.7494 8.79768 10.5218 9.30015 10.1428C9.30789 10.1538 9.3124 10.1663 9.32216 10.176L9.70563 10.5596C9.53365 10.8732 9.4319 11.2237 9.41465 11.5927C9.38515 12.2283 9.60338 12.8357 10.0291 13.303L10.8708 14.2269C11.2965 14.6939 11.8807 14.9677 12.5161 14.9972C12.5541 14.9992 12.5921 15 12.6301 15C13.2238 15 13.7865 14.7832 14.2257 14.3829C15.1936 13.501 15.2636 11.9956 14.3819 11.0272ZM3.86113 12.2916L3.01995 13.2162C2.69572 13.573 2.14104 13.599 1.78405 13.2745C1.42733 12.9497 1.40108 12.3949 1.72581 12.0381L2.56672 11.1134C2.7392 10.9239 2.97645 10.8276 3.21443 10.8276C3.42466 10.8276 3.63563 10.9029 3.80286 11.0549C4.15958 11.38 4.1856 11.9345 3.86113 12.2916ZM7.49978 8.74911C6.94832 8.74911 6.49987 8.30056 6.49987 7.74897C6.49987 7.19738 6.94832 6.74882 7.49978 6.74882C8.05124 6.74882 8.4997 7.19738 8.4997 7.74897C8.4997 8.30056 8.05124 8.74911 7.49978 8.74911ZM13.2163 13.274C13.0443 13.4305 12.8206 13.512 12.5863 13.4998C12.3519 13.4888 12.1366 13.3883 11.9801 13.2162L11.1382 12.2921C10.9818 12.1203 10.9015 11.8966 10.9123 11.662C10.9232 11.4275 11.0237 11.2122 11.1957 11.0557C11.3632 10.9034 11.5742 10.8281 11.7844 10.8281C12.0222 10.8281 12.2591 10.9241 12.4316 11.1134L13.2736 12.0376C13.5988 12.3944 13.573 12.9492 13.2163 13.274Z" fill="white"/>
</svg>
