<svg width="14" height="16" viewBox="0 0 14 16" fill="none" xmlns="http://www.w3.org/2000/svg">
<path d="M3.55319 13.5408C2.57473 12.7745 2.02504 11.7352 2.02504 10.6516V2.53394H1.50354C1.35955 2.53394 1.24268 2.42004 1.24268 2.27971L1.24271 0.754227C1.24271 0.6139 1.35958 0.5 1.50357 0.5H3.06879C3.21278 0.5 3.32965 0.6139 3.32962 0.754287V2.27971C3.32962 2.42004 3.21275 2.53394 3.06876 2.53394H2.54702L2.54682 10.1611L2.54684 10.1728C2.54902 11.2523 2.85434 12.2868 3.82928 13.0503C4.54621 13.6118 5.30207 13.993 6.19924 14.1566L6.19925 13.7203C6.19925 13.58 6.31612 13.4661 6.46011 13.4661H8.02533C8.16932 13.4661 8.28619 13.58 8.28616 13.7203V14.1573C9.19179 13.994 9.96159 13.6126 10.6795 13.0503C11.658 12.2841 11.9382 11.2448 11.9382 10.1611L11.9384 2.5339L11.4166 2.53394C11.2726 2.53394 11.1557 2.42004 11.1557 2.27971L11.1558 0.754227C11.1558 0.6139 11.2726 0.5 11.4166 0.5H12.9818C13.1258 0.5 13.2427 0.6139 13.2427 0.754287V2.27971C13.2427 2.42004 13.1258 2.53394 12.9818 2.53394H12.4599V10.6516C12.4599 11.7352 11.9102 12.7745 10.9317 13.5408C10.203 14.1115 9.28097 14.4959 8.28616 14.655V15.2458C8.28616 15.3861 8.16929 15.5 8.0253 15.5H6.46007C6.31609 15.5 6.19921 15.3861 6.19921 15.2458L6.19923 14.655C5.20423 14.496 4.282 14.1115 3.55319 13.5408Z" fill="#2A7378"/>
<path d="M11.9382 10.6425L11.9384 2.5339L11.4166 2.53394C11.2726 2.53394 11.1557 2.42004 11.1557 2.27971L11.1558 0.754228C11.1558 0.6139 11.2726 0.5 11.4166 0.5H12.9818C13.1258 0.5 13.2427 0.6139 13.2427 0.754287V2.27971C13.2427 2.42004 13.1258 2.53394 12.9818 2.53394H12.4599V10.6516C12.4599 11.7352 11.9102 12.7745 10.9317 13.5408C10.203 14.1115 9.28097 14.4959 8.28616 14.655V15.2458C8.28616 15.3861 8.16929 15.5 8.0253 15.5H6.46007C6.31609 15.5 6.19922 15.3861 6.19922 15.2458L6.19923 14.655C5.20423 14.496 4.282 14.1115 3.55319 13.5408C2.57473 12.7745 2.02504 11.7352 2.02504 10.6516V2.53394H1.50354C1.35955 2.53394 1.24268 2.42004 1.24268 2.27971L1.24271 0.754228C1.24271 0.6139 1.35958 0.5 1.50357 0.5H3.06879C3.21278 0.5 3.32965 0.6139 3.32962 0.754287V2.27971C3.32962 2.42004 3.21275 2.53394 3.06876 2.53394H2.54702L2.54682 10.6696M2.54682 10.1611C2.54682 11.2448 2.85083 12.2841 3.82928 13.0503C4.54621 13.6118 5.30207 13.993 6.19924 14.1566L6.19925 13.7203C6.19925 13.58 6.31612 13.4661 6.46011 13.4661H8.02533C8.16932 13.4661 8.28619 13.58 8.28616 13.7203V14.1573C9.19179 13.994 9.96159 13.6126 10.6795 13.0503C11.658 12.2841 11.9382 11.2448 11.9382 10.1611" stroke="white" stroke-linecap="round" stroke-linejoin="round"/>
</svg>
