<svg width="15" height="15" viewBox="0 0 15 15" fill="none" xmlns="http://www.w3.org/2000/svg">
<g clip-path="url(#clip0_4559_18980)">
<path d="M13.5 6.25V5.5H9.74999V8.75002H8.99999V9.50002H5.75V13.25H6.5V14H13.5V13.25H14.25V6.25H13.5Z" fill="white"/>
<path d="M8.75002 1.75V1H1.75V1.75H1V8.75002H1.75V9.50002H8.75002V8.75002H9.50002V1.75H8.75002Z" fill="white"/>
<path d="M9 9.75H1.5V9H0.75V1.5H1.5V0.75H9V1.5H9.75V9H9V9.75ZM2.00001 9.24999H8.50002V8.49999H9.25002V2.00001H8.50002V1.25001H2.00001V2.00001H1.25001V8.50002H2.00001V9.24999Z" fill="white"/>
<path d="M0.25 1.75H1.75V0.25H0.25V1.75Z" fill="white"/>
<path d="M2.00001 2.00001H0V0H2.00001V2.00001ZM0.50001 1.5H1.5V0.50001H0.50001V1.5Z" fill="white"/>
<path d="M8.75 10.25H10.25V8.75H8.75V10.25Z" fill="white"/>
<path d="M10.5 10.5H8.5V8.5H10.5V10.5ZM9.00001 10H10V9.00001H9.00001V10Z" fill="white"/>
<path d="M8.75 1.75H10.25V0.25H8.75V1.75Z" fill="white"/>
<path d="M10.5 2.00001H8.5V0H10.5V2.00001ZM9.00001 1.5H10V0.50001H9.00001V1.5Z" fill="white"/>
<path d="M0.25 10.25H1.75V8.75H0.25V10.25Z" fill="white"/>
<path d="M2.00001 10.5H0V8.5H2.00001V10.5ZM0.50001 10H1.5V9.00001H0.50001V10Z" fill="white"/>
<path d="M13.25 6.25H14.75V4.75H13.25V6.25Z" fill="white"/>
<path d="M15 6.50001H13V4.5H15V6.50001ZM13.5 6H14.5V5.00001H13.5V6Z" fill="white"/>
<path d="M4.75 14.75H6.25V13.25H4.75V14.75Z" fill="white"/>
<path d="M6.50001 15H4.5V13H6.50001V15ZM5.00001 14.5H6V13.5H5.00001V14.5Z" fill="white"/>
<path d="M13.25 14.75H14.75V13.25H13.25V14.75Z" fill="white"/>
<path d="M15 15H13V13H15V15ZM13.5 14.5H14.5V13.5H13.5V14.5Z" fill="white"/>
<path d="M2.00001 2.00001H0V0H2.00001V2.00001ZM0.50001 1.5H1.5V0.50001H0.50001V1.5Z" fill="#2A7378"/>
<path d="M10.5 10.5H8.5V8.5H10.5V10.5ZM9.00001 10H10V9.00001H9.00001V10Z" fill="#2A7378"/>
<path d="M10.5 2.00001H8.5V0H10.5V2.00001ZM9.00001 1.5H10V0.50001H9.00001V1.5Z" fill="#2A7378"/>
<path d="M2.00001 10.5H0V8.5H2.00001V10.5ZM0.50001 10H1.5V9.00001H0.50001V10Z" fill="#2A7378"/>
<path d="M15 6.50001H13V4.5H15V6.50001ZM13.5 6H14.5V5.00001H13.5V6Z" fill="#2A7378"/>
<path d="M6.50001 15H4.5V13H6.50001V15ZM5.00001 14.5H6V13.5H5.00001V14.5Z" fill="#2A7378"/>
<path d="M15 15H13V13H15V15ZM13.5 14.5H14.5V13.5H13.5V14.5Z" fill="#2A7378"/>
<path d="M13.5 14.25H6V13.5H5.25V9.24999H8.49999V8.49999H9.24999V5.25H13.5V6H14.25V13.5H13.5V14.25ZM6.50001 13.75H13V13H13.75V6.50001H13V5.75001H9.75V9H9V9.75H5.75001V13H6.50001V13.75Z" fill="#2A7378"/>
<path d="M9 9.75H1.5V9H0.75V1.5H1.5V0.75H9V1.5H9.75V9H9V9.75ZM2.00001 9.24999H8.50002V8.49999H9.25002V2.00001H8.50002V1.25001H2.00001V2.00001H1.25001V8.50002H2.00001V9.24999Z" fill="#2A7378"/>
</g>
<defs>
<clipPath id="clip0_4559_18980">
<rect width="15" height="15" fill="white"/>
</clipPath>
</defs>
</svg>
