<svg width="23" height="20" viewBox="0 0 23 20" fill="none" xmlns="http://www.w3.org/2000/svg">
<path d="M17.305 15.625H17.3163M15.7335 12.25H18.4275C19.4736 12.25 19.9966 12.25 20.4092 12.4212C20.9592 12.6496 21.3964 13.0877 21.6242 13.6389C21.7951 14.0525 21.7951 14.5766 21.7951 15.625C21.7951 16.6734 21.7951 17.1975 21.6242 17.6111C21.3964 18.1623 20.9592 18.6004 20.4092 18.8288C19.9966 19 19.4736 19 18.4275 19H4.95748C3.91144 19 3.38842 19 2.97584 18.8288C2.42576 18.6004 1.98871 18.1623 1.76086 17.6111C1.58997 17.1975 1.58997 16.6734 1.58997 15.625C1.58997 14.5766 1.58997 14.0525 1.76086 13.6389C1.98871 13.0877 2.42576 12.6496 2.97584 12.4212C3.38842 12.25 3.91144 12.25 4.95748 12.25H7.6515M11.6925 13.375V1M11.6925 1L15.06 4.375M11.6925 1L8.325 4.375" stroke="white" stroke-width="2" stroke-linecap="round" stroke-linejoin="round"/>
</svg>
