<svg width="51" height="50" viewBox="0 0 51 50" fill="none" xmlns="http://www.w3.org/2000/svg">
<path d="M25.7951 4.16667C21.6747 4.16667 17.6468 5.38853 14.2208 7.67772C10.7947 9.96692 8.12447 13.2206 6.54764 17.0274C4.97082 20.8342 4.55825 25.0231 5.36211 29.0644C6.16597 33.1057 8.15015 36.8178 11.0637 39.7314C13.9773 42.645 17.6895 44.6292 21.7308 45.433C25.772 46.2369 29.9609 45.8243 33.7677 44.2475C37.5745 42.6707 40.8282 40.0004 43.1174 36.5744C45.4066 33.1484 46.6285 29.1204 46.6285 25C46.6285 22.2641 46.0896 19.555 45.0426 17.0274C43.9957 14.4998 42.4611 12.2032 40.5265 10.2686C38.592 8.33406 36.2953 6.79949 33.7677 5.75251C31.2401 4.70554 28.531 4.16667 25.7951 4.16667ZM37.6201 21.3271L25.1201 32.7854C24.7244 33.1483 24.2038 33.3444 23.667 33.3327C23.1301 33.3211 22.6185 33.1026 22.2389 32.7229L15.9889 26.4729C15.7899 26.2807 15.6312 26.0509 15.522 25.7967C15.4128 25.5425 15.3553 25.2691 15.3529 24.9925C15.3505 24.7159 15.4033 24.4416 15.508 24.1855C15.6128 23.9295 15.7675 23.6969 15.9631 23.5013C16.1587 23.3057 16.3913 23.151 16.6473 23.0462C16.9033 22.9415 17.1777 22.8887 17.4543 22.8911C17.7309 22.8936 18.0043 22.951 18.2585 23.0602C18.5127 23.1694 18.7425 23.3281 18.9347 23.5271L23.7743 28.3667L34.8035 18.2563C35.2107 17.8827 35.7496 17.6863 36.3017 17.7101C36.8537 17.734 37.3737 17.9761 37.7472 18.3833C38.1207 18.7906 38.3172 19.3295 38.2933 19.8815C38.2695 20.4336 38.0274 20.9536 37.6201 21.3271Z" fill="#2A7378"/>
</svg>
