<svg width="17" height="17" viewBox="0 0 17 17" fill="none" xmlns="http://www.w3.org/2000/svg">
<path d="M5.51542 15.3374C5.51542 15.3374 3.01174 15.3462 2.69736 15.3374L2.69906 15.7799C2.69906 15.9014 2.61063 16 2.50169 16H1.19736C1.08842 16 1 15.9014 1 15.7798V14.4591C1 14.3376 1.08842 14.239 1.19736 14.239H2.5C2.60894 14.239 2.69736 14.3376 2.69736 14.4591L2.69567 14.8971C3.01219 14.8877 5.20488 14.8971 5.20488 14.8971C5.99599 14.8971 6.75471 14.6469 7.31411 14.0166C7.87352 13.3864 8.10359 12.5316 8.10359 11.6403V9.83667H7.63288C7.52395 9.83667 7.43552 9.73805 7.43552 9.6165V8.29578C7.43552 8.17428 7.52395 8.07567 7.63288 8.07567L8.10444 8.07569L8.10359 5.21181C8.10359 4.32051 8.59286 3.30445 9.15227 2.6742C9.71167 2.04396 10.4704 1.68989 11.2615 1.68989C11.2615 1.68989 13.9123 1.69315 14.2237 1.69116V1.22011C14.2237 1.09862 14.3121 1 14.4211 1H15.8026C15.9116 1 16 1.09862 16 1.22016L16 2.53487C16 2.65637 15.9116 2.75499 15.8026 2.75499H14.4211C14.3121 2.75499 14.2237 2.65637 14.2237 2.53487V2.13099C13.9241 2.12899 11.4812 2.13013 11.4812 2.13013C10.6901 2.13013 9.93141 2.4842 9.37201 3.11445C8.8126 3.74469 8.49833 4.59949 8.49833 5.4908V8.0757L8.93791 8.07572C9.04685 8.07572 9.13527 8.17434 9.13527 8.29584V9.61656C9.13527 9.73805 9.04685 9.83667 8.93791 9.83667H8.49833V11.9767C8.49833 12.868 8.18406 13.7228 7.62465 14.353C7.06525 14.9833 6.30653 15.3374 5.51542 15.3374Z" fill="#2A7378" stroke="white" stroke-linecap="round" stroke-linejoin="round"/>
</svg>
