<svg width="24" height="24" viewBox="0 0 24 24" fill="none" xmlns="http://www.w3.org/2000/svg">
<path d="M10 2C8.41775 2 6.87103 2.46919 5.55544 3.34824C4.23985 4.22729 3.21447 5.47672 2.60897 6.93853C2.00347 8.40034 1.84504 10.0089 2.15372 11.5607C2.4624 13.1126 3.22433 14.538 4.34315 15.6569C5.46197 16.7757 6.88743 17.5376 8.43928 17.8463C9.99113 18.155 11.5997 17.9965 13.0615 17.391C14.5233 16.7855 15.7727 15.7602 16.6518 14.4446C17.5308 13.129 18 11.5823 18 10C18 7.87827 17.1571 5.84344 15.6569 4.34315C14.1566 2.84285 12.1217 2 10 2ZM14.5 11.5L5.5 11.5607C5.23478 11.5607 4.68754 11.1875 4.5 11C4.31246 10.8125 4 10.2652 4 10C4 9.73478 4.31246 9.18754 4.5 9C4.68754 8.81246 5.23478 8.5 5.5 8.5H14.5C14.7652 8.5 15.3125 8.81246 15.5 9C15.6875 9.18754 16 9.73478 16 10C16 10.2652 15.6875 10.8125 15.5 11C15.3125 11.1875 14.7652 11.5 14.5 11.5Z" fill="white" stroke="white"/>
<path d="M21.7099 21.71C21.6169 21.8037 21.5063 21.8781 21.3844 21.9289C21.2626 21.9796 21.1319 22.0058 20.9999 22.0058C20.8679 22.0058 20.7371 21.9796 20.6153 21.9289C20.4934 21.8781 20.3828 21.8037 20.2899 21.71L15.6099 17C16.1244 16.5908 16.5907 16.1245 16.9999 15.61L21.6799 20.29C21.7756 20.381 21.8523 20.49 21.9057 20.6108C21.9591 20.7316 21.988 20.8617 21.9908 20.9937C21.9935 21.1258 21.9702 21.257 21.9219 21.38C21.8737 21.5029 21.8017 21.6151 21.7099 21.71Z" fill="white" stroke="white"/>
</svg>
